<svg width="39" height="54" viewBox="0 0 39 54" fill="none" xmlns="http://www.w3.org/2000/svg">
<g clip-path="url(#clip0_184_137)">
<path d="M31.9546 54C31.601 53.6313 31.1893 53.3012 30.9076 52.8832C30.4408 52.1906 30.0566 51.4394 29.6112 50.6696C28.9974 51.0213 28.4143 51.3576 27.828 51.6908C26.6602 52.3556 25.6178 51.771 25.6117 50.4213C25.5979 47.3994 25.5979 44.3776 25.6117 41.3557C25.6178 40.006 26.6632 39.4121 27.825 40.0831C30.4209 41.5856 33.0138 43.0911 35.6035 44.6043C36.7653 45.283 36.7607 46.4816 35.6066 47.1696C35.025 47.5167 34.4372 47.8529 33.825 48.2108C34.3025 49.0499 34.7632 49.849 35.2163 50.6542C35.7566 51.6167 35.5638 52.351 34.624 52.914C34.0148 53.2796 33.4025 53.6375 32.7903 54H31.953H31.9546ZM34.6178 45.8846C32.1352 44.4408 29.726 43.0386 27.2556 41.601V50.1698C27.7974 49.8552 28.2857 49.5667 28.7801 49.2875C29.7138 48.7569 30.4729 48.9666 31.0209 49.9076C31.4862 50.7066 31.9439 51.5103 32.4214 52.3387C32.9097 52.0517 33.3704 51.7818 33.8602 51.4949C33.375 50.6449 32.9005 49.832 32.4428 49.0098C31.9377 48.1028 32.1398 47.3578 33.0229 46.8256C33.525 46.5232 34.0331 46.2302 34.6178 45.8862V45.8846Z" fill="#0000A9"/>
<path d="M37.4021 9.63324H1.60264C1.60264 10.1762 1.60264 10.73 1.60264 11.2838C1.60264 11.4766 1.61182 11.6709 1.59804 11.8638C1.56284 12.345 1.23835 12.6659 0.799065 12.6628C0.358248 12.6613 0.0337584 12.3466 0.0245747 11.8499C0.00620739 10.9367 0.0153911 10.022 0.0153911 9.10877C0.0153911 7.19293 0.0643707 5.27708 0.00314617 3.36432C-0.0687926 1.17853 1.6608 -0.00614621 3.32304 2.39807e-05C14.1338 0.0370451 24.946 0.0200771 35.7567 0.0139069C36.8174 0.0139069 37.7465 0.337842 38.3389 1.23098C38.6618 1.71842 38.7827 2.34624 38.9695 2.91853C39.0215 3.07741 38.9878 3.26714 38.9878 3.44299C38.9878 17.8334 38.9832 32.2223 38.997 46.6128C38.997 47.7357 38.7093 48.6906 37.8246 49.4063C37.6118 49.5791 37.3577 49.7164 37.1021 49.8166C36.6858 49.9801 36.3429 49.8351 36.1363 49.4387C35.9297 49.0407 35.9955 48.6242 36.3873 48.4314C37.2736 47.998 37.4128 47.2761 37.4113 46.3829C37.396 34.3649 37.4006 22.3469 37.4006 10.3289C37.4006 10.1053 37.4006 9.88159 37.4006 9.63478L37.4021 9.63324ZM37.4021 7.99351C37.4021 7.79607 37.4021 7.62484 37.4021 7.45362C37.4021 6.11931 37.4021 4.78347 37.4021 3.44916C37.4021 2.15034 36.8848 1.6197 35.6067 1.6197C25.6531 1.61507 15.698 1.61199 5.74447 1.61044C4.87355 1.61044 4.00111 1.60427 3.13019 1.62433C2.18733 1.64592 1.60876 2.24443 1.60417 3.19156C1.59804 4.66623 1.60264 6.14245 1.60417 7.61867C1.60417 7.73745 1.61794 7.85468 1.62713 7.99505H37.4037L37.4021 7.99351Z" fill="#0000A9"/>
<path d="M0.01533 31.1749C0.01533 25.887 0.01533 20.5976 0.01533 15.3098C0.01533 14.6218 0.226555 14.304 0.697983 14.2516C1.15257 14.2007 1.52604 14.4814 1.5888 14.9411C1.61482 15.1309 1.59951 15.3268 1.59951 15.5196C1.59951 25.8855 1.59951 36.2514 1.59951 46.6174C1.59951 47.927 2.09696 48.4314 3.39186 48.4314C9.84339 48.4314 16.2949 48.4314 22.748 48.4329C22.9561 48.4329 23.1704 48.4237 23.3709 48.4684C23.772 48.5594 24.0077 48.8139 24.0061 49.2489C24.0046 49.6809 23.7766 49.9369 23.3679 50.0248C23.1995 50.0619 23.022 50.0649 22.849 50.0649C16.3454 50.0665 9.84033 50.068 3.33676 50.0649C1.66533 50.0649 0.462269 49.198 0.101044 47.7126C0.0122688 47.3439 0.01533 46.9475 0.01533 46.5634C0.0107382 41.4328 0.0122688 36.3023 0.0122688 31.1718L0.01533 31.1749Z" fill="#0000A9"/>
<path d="M19.5031 24.9631C16.0684 24.9631 12.6352 24.9631 9.20051 24.9631C7.62092 24.9631 6.975 24.3137 6.97347 22.731C6.97347 22.2744 6.97041 21.8178 6.97347 21.3612C6.98571 20.0624 7.69592 19.342 8.98775 19.3405C12.3168 19.3359 15.6474 19.339 18.9765 19.339C22.6026 19.339 26.2286 19.339 29.8546 19.339C31.3577 19.339 32.0265 20.01 32.0296 21.517C32.0296 21.9906 32.0342 22.4657 32.0296 22.9393C32.0173 24.2396 31.3133 24.9554 30.0138 24.96C27.4867 24.9693 24.9582 24.9631 22.4311 24.9631C21.4546 24.9631 20.4781 24.9631 19.5031 24.9631ZM8.62194 23.2987H30.3719V21.0188H8.62194V23.2987Z" fill="#0000A9"/>
<path d="M19.5 33.896C16.0485 33.896 12.5969 33.896 9.14539 33.896C7.61784 33.896 6.97498 33.2512 6.97345 31.7287C6.97345 31.2196 6.96274 30.7091 6.97651 30.2C7.0056 29.0277 7.73111 28.2903 8.88672 28.2903C15.9643 28.2857 23.0403 28.2857 30.1178 28.2903C31.252 28.2903 31.9837 29.0123 32.025 30.1507C32.0449 30.6767 32.0296 31.2042 32.0296 31.7318C32.0265 33.2342 31.3837 33.8944 29.9066 33.896C26.4382 33.899 22.9684 33.896 19.5 33.896ZM30.4071 32.2578C30.4071 31.6593 30.3673 31.1132 30.4178 30.5749C30.4699 30.0288 30.277 29.9069 29.7536 29.9085C22.924 29.927 16.0944 29.9208 9.26325 29.9208C9.1408 29.9208 9.00457 29.8884 8.90202 29.9316C8.7857 29.981 8.61733 30.0997 8.61427 30.1923C8.58978 30.871 8.60049 31.5497 8.60049 32.2578H30.4071Z" fill="#0000A9"/>
<path d="M19.5031 43.3549C18.8771 43.3549 18.2495 43.3641 17.6235 43.3533C16.1985 43.3287 15.0566 42.2242 14.997 40.8189C14.9281 39.2131 15.8862 37.956 17.3893 37.865C18.7929 37.7801 20.2102 37.7801 21.6153 37.865C23.1214 37.956 24.0781 39.2116 24.0092 40.8189C23.948 42.2257 22.8107 43.3287 21.3842 43.3533C20.7582 43.3641 20.1306 43.3549 19.5046 43.3549H19.5031ZM19.523 39.4384C18.949 39.4384 18.375 39.4384 17.801 39.4384C17.7658 39.4384 17.7322 39.4384 17.697 39.4384C17.0357 39.4615 16.5842 39.9119 16.5689 40.5613C16.5536 41.2308 17.0066 41.7522 17.6801 41.763C18.897 41.7846 20.1153 41.7846 21.3322 41.763C22.0026 41.7506 22.4541 41.2215 22.4342 40.5521C22.4143 39.9042 21.9628 39.4538 21.297 39.4414C20.7061 39.4306 20.1138 39.4399 19.523 39.4384Z" fill="#0000A9"/>
<path d="M19.523 12.6612C21.926 12.6612 24.3306 12.6489 26.7337 12.6767C27.0245 12.6798 27.401 12.8186 27.5862 13.0299C27.9567 13.4526 27.6429 14.1297 27.0842 14.2346C27 14.2501 26.9112 14.2454 26.824 14.2454C21.9475 14.2454 17.0709 14.2454 12.1944 14.2485C11.7888 14.2485 11.4291 14.1328 11.3464 13.7179C11.2959 13.4649 11.3587 13.104 11.5163 12.9188C11.6648 12.7461 12.0046 12.6736 12.2618 12.6705C14.6832 12.6535 17.1031 12.6597 19.5245 12.6597L19.523 12.6612Z" fill="#0000A9"/>
<path d="M3.38416 4.81121C3.38416 3.47228 4.43722 2.4033 5.76426 2.3925C7.09742 2.38016 8.19793 3.48462 8.19334 4.82972C8.19028 6.14243 7.10201 7.24536 5.79793 7.26078C4.47089 7.27621 3.38263 6.17174 3.38416 4.81121ZM5.78722 4.01063C5.32497 4.00755 4.94691 4.38547 4.95763 4.83589C4.96834 5.26781 5.33263 5.61797 5.77191 5.62105C6.24487 5.62414 6.61222 5.25855 6.59844 4.79733C6.5862 4.35616 6.2311 4.01217 5.78569 4.01063H5.78722Z" fill="#0000A9"/>
<path d="M9.66426 4.83591C9.65967 3.46613 10.725 2.38326 12.0704 2.39097C13.3867 2.39868 14.4658 3.48001 14.4734 4.80197C14.4811 6.13782 13.3683 7.26851 12.052 7.25925C10.7387 7.25 9.66885 6.16405 9.66426 4.83591ZM12.0505 5.62107C12.5234 5.6257 12.8923 5.26165 12.8816 4.80043C12.8709 4.36081 12.5158 4.01373 12.0719 4.01065C11.6097 4.00756 11.2301 4.3824 11.2393 4.83283C11.2484 5.26474 11.6112 5.61644 12.052 5.62107H12.0505Z" fill="#0000A9"/>
<path d="M15.9429 4.82204C15.9429 3.45842 17.022 2.37247 18.3643 2.39098C19.6852 2.40949 20.7521 3.49236 20.7521 4.81587C20.7521 6.15017 19.6255 7.28086 18.3168 7.25926C16.9975 7.23767 15.9444 6.15634 15.9429 4.82204ZM19.1617 4.81124C19.1572 4.3531 18.776 3.99369 18.3077 4.01066C17.8699 4.02608 17.5133 4.39167 17.5163 4.82204C17.5194 5.27246 17.9066 5.63496 18.3704 5.62108C18.8174 5.60719 19.1648 5.25087 19.1617 4.81278V4.81124Z" fill="#0000A9"/>
</g>
<defs>
<clipPath id="clip0_184_137">
<rect width="39" height="54" fill="white"/>
</clipPath>
</defs>
</svg>
