<svg width="47" height="47" viewBox="0 0 47 47" fill="none" xmlns="http://www.w3.org/2000/svg">
<g clip-path="url(#clip0_184_105)">
<path d="M28.9231 47C28.1666 46.8313 27.3912 46.7194 26.6584 46.4814C24.7593 45.8634 23.0509 44.8388 21.3519 43.8188C12.4001 38.4465 5.72254 30.9823 1.09535 21.6596C-0.912497 17.613 -0.102424 12.6994 3.04488 9.42679C3.70208 8.74263 4.37504 8.07425 5.05273 7.41216C6.17643 6.31657 7.7493 6.31657 8.86354 7.42477C11.2827 9.83034 13.694 12.2422 16.0975 14.662C17.2133 15.7844 17.2243 17.3371 16.1258 18.4753C15.1802 19.4542 14.2031 20.4032 13.2433 21.3679C12.3245 22.2917 12.2441 23.0452 12.9722 24.1376C13.3883 24.7603 13.8296 25.3656 14.263 25.9757C14.6444 26.5133 14.6113 27.0634 14.1731 27.3992C13.7161 27.7491 13.1692 27.6293 12.7626 27.0634C12.2457 26.3446 11.724 25.6257 11.2433 24.8817C10.2804 23.3936 10.4632 21.5681 11.7035 20.2944C12.6838 19.2855 13.6925 18.3018 14.6838 17.304C15.2212 16.7633 15.2196 16.4055 14.6759 15.86C12.3418 13.5207 10.0077 11.1845 7.66892 8.84983C7.13307 8.31386 6.77689 8.32332 6.23001 8.86717C5.64531 9.45043 5.05588 10.029 4.47906 10.6201C2.78011 12.3636 1.91645 14.4712 1.86129 16.891C1.82977 18.2987 2.15286 19.6481 2.78642 20.9139C7.08894 29.4989 13.1755 36.4934 21.3283 41.6198C22.8885 42.6003 24.515 43.4941 26.1714 44.3012C29.4132 45.8792 33.4731 45.1982 36.0971 42.7201C36.8079 42.0486 37.4919 41.3471 38.179 40.6487C38.6077 40.2136 38.6093 39.8085 38.1712 39.3703C35.7961 36.9868 33.4163 34.6064 31.0334 32.2308C30.5763 31.7752 30.154 31.7894 29.6843 32.256C28.7182 33.2161 27.7631 34.1855 26.7955 35.1424C25.3676 36.5548 23.582 36.7472 21.9287 35.6216C20.8555 34.8918 19.8184 34.1083 18.783 33.3248C18.3921 33.0285 18.3181 32.5713 18.5182 32.1756C18.7026 31.8131 19.125 31.5829 19.5143 31.6948C19.7396 31.7595 19.9477 31.9092 20.1431 32.0495C21.0871 32.7242 22.0138 33.4241 22.9673 34.0862C23.8294 34.6852 24.6978 34.6001 25.4543 33.8576C26.4267 32.9055 27.3802 31.9329 28.3447 30.9729C29.6213 29.7023 31.1342 29.707 32.4156 30.987C34.7418 33.3106 37.068 35.6374 39.391 37.9641C40.6865 39.2615 40.6975 40.789 39.3863 42.069C38.3808 43.0511 37.3958 44.0663 36.2926 44.9302C34.8127 46.0888 33.0759 46.7147 31.1973 46.9196C31.109 46.9291 31.0255 46.9732 30.9388 47.0016H28.9199L28.9231 47Z" fill="#005DA9"/>
<path d="M47 20.5624C46.7668 20.895 46.5036 21.1898 46.0528 21.1788C45.5375 21.1662 45.1781 20.75 45.1639 20.1557C45.1167 18.0654 44.8235 16.013 44.0702 14.0567C41.6731 7.82994 37.2413 3.87321 30.7481 2.31101C29.4983 2.00992 28.1839 1.94528 26.8932 1.85858C26.3227 1.82075 25.8309 1.46133 25.8309 0.898562C25.8309 0.354709 26.2769 0.00317424 26.9341 0.00159785C35.8229 -0.00786047 43.848 6.11798 46.2435 14.7897C46.5713 15.9736 46.6943 17.2126 46.9149 18.4264C46.9338 18.5289 46.9716 18.6266 47 18.7275V20.564V20.5624Z" fill="#005DA9"/>
<path d="M41.4887 19.8247C41.4887 19.9618 41.495 20.1005 41.4887 20.2377C41.4634 20.7705 41.0521 21.1851 40.5588 21.1819C40.0766 21.1788 39.6715 20.7973 39.6542 20.2739C39.5974 18.6298 39.3736 17.014 38.7196 15.4959C36.7795 11 33.4116 8.29653 28.5559 7.51307C27.9853 7.42164 27.4022 7.4043 26.8238 7.36173C26.2312 7.31759 25.8278 6.9503 25.8294 6.43955C25.8294 5.91146 26.2691 5.50475 26.8695 5.51578C30.8868 5.58514 34.343 7.01808 37.1846 9.85873C39.93 12.6032 41.3185 15.9578 41.4934 19.8262L41.4887 19.8247Z" fill="#005DA9"/>
<path d="M35.9742 19.9681C35.9931 20.8556 35.4194 21.3774 34.7197 21.1094C34.2705 20.9376 34.157 20.5703 34.0972 20.132C33.9947 19.3801 33.9317 18.6061 33.7016 17.892C32.7859 15.0577 30.2138 13.1077 27.2494 12.9232C27.0665 12.9122 26.8821 12.9043 26.7009 12.8791C26.1714 12.8081 25.8073 12.4093 25.8278 11.9333C25.8499 11.432 26.2565 11.03 26.8033 11.0316C27.9428 11.0363 29.046 11.2523 30.1098 11.6637C33.5109 12.98 35.8985 16.3582 35.9758 19.9697L35.9742 19.9681Z" fill="#005DA9"/>
<path d="M30.4534 20.11C30.4786 20.6933 30.0878 21.1567 29.5519 21.1804C29.0302 21.204 28.6299 20.8068 28.5795 20.173C28.5133 19.3328 28.0894 18.7795 27.3029 18.5084C27.1201 18.4453 26.9137 18.4485 26.7182 18.417C26.143 18.3239 25.7663 17.881 25.8357 17.3844C25.9097 16.8579 26.3494 16.5206 26.92 16.5552C28.849 16.6672 30.3714 18.1994 30.4534 20.1116V20.11Z" fill="#005DA9"/>
<path d="M17.2274 29.7953C17.2322 30.2903 16.7893 30.7396 16.296 30.738C15.8059 30.738 15.3551 30.2808 15.363 29.7921C15.3693 29.3082 15.7838 28.8968 16.2755 28.8873C16.7893 28.8763 17.2227 29.2893 17.2274 29.7953Z" fill="#005DA9"/>
</g>
<defs>
<clipPath id="clip0_184_105">
<rect width="47" height="47" fill="white"/>
</clipPath>
</defs>
</svg>
