<svg width="58" height="53" viewBox="0 0 58 53" fill="none" xmlns="http://www.w3.org/2000/svg">
<g clip-path="url(#clip0_184_112)">
<path d="M0 17.8196C0.227659 17.6361 0.432553 17.3913 0.690567 17.269C2.7395 16.2671 4.80361 15.2958 6.86013 14.3092C6.94361 14.271 7.02708 14.2404 7.1485 14.1945C7.47481 14.7069 7.78595 15.204 8.13503 15.747C6.10886 16.7183 4.11304 17.6743 2.07929 18.6456C2.46631 19.6475 2.82298 20.6035 3.21 21.5518C3.25553 21.6742 3.44524 21.7812 3.58184 21.8118C4.53801 22.0183 5.50936 22.1636 6.45794 22.4084C6.78425 22.4925 7.17127 22.7219 7.34581 23.0049C9.81212 26.8748 12.2557 30.7522 14.6916 34.645C14.8282 34.8592 14.9193 35.1345 14.9345 35.3869C14.9952 36.2434 15.0407 37.1 15.0255 37.9489C15.0103 38.5684 15.2001 39.0655 15.5491 39.5703C18.1141 43.2566 20.6563 46.9658 23.1909 50.675C23.4337 51.0268 23.6842 51.1339 24.1015 51.1722C24.8908 51.241 25.4295 51.0192 25.771 50.2773C26.3933 48.8931 27.5088 48.2736 28.9734 48.0365C30.2104 47.8377 31.4094 47.3941 32.6463 47.1341C32.9878 47.0576 33.4507 47.1341 33.7467 47.3176C34.8395 47.983 35.8867 48.7325 36.9946 49.4743C37.5183 48.5872 38.0419 47.7382 38.5275 46.8587C38.7856 46.3922 39.1498 46.1475 39.6582 46.0098C44.2797 44.7173 48.9012 43.4095 53.5151 42.1094C53.8262 42.0253 54.0235 41.8876 54.1374 41.5511C54.6989 39.8991 55.2681 38.2548 55.8676 36.6182C55.989 36.2817 55.9207 36.0828 55.7082 35.8075C55.2453 35.211 54.7748 34.9968 53.9856 35.2416C52.8018 35.6087 51.5648 35.7846 50.3582 36.0981C49.7663 36.2511 49.3869 36.0522 49.0606 35.5857C48.0133 34.0714 46.9661 32.5571 45.8885 31.0735C45.6077 30.6911 45.2131 30.3775 44.8413 30.0716C44.5529 29.8345 44.2266 29.6203 43.8851 29.4674C42.7165 28.9473 42.079 27.9684 41.6085 26.8442C41.5478 26.6988 41.5402 26.4694 41.6085 26.3394C41.8817 25.8193 42.1929 25.3222 42.5495 24.7257C42.9441 25.4599 43.2856 26.1482 43.6726 26.8059C43.8396 27.0889 44.0673 27.3872 44.3404 27.5325C46.0858 28.4579 47.4442 29.7657 48.4535 31.4788C48.9468 32.3124 49.5311 33.0849 50.1154 33.8496C50.2368 34.0102 50.5631 34.1326 50.7528 34.0944C52.096 33.8191 53.4316 33.4978 54.7672 33.1766C55.2984 33.0466 55.7158 33.146 56.0877 33.559C56.5885 34.125 57.1197 34.668 57.6509 35.211C57.9772 35.5475 58.0531 35.9146 57.8938 36.3582C57.1197 38.5378 56.3457 40.7175 55.5944 42.8971C55.4199 43.3942 55.0556 43.5931 54.6003 43.7154C50.0016 45.0079 45.4029 46.3157 40.7965 47.6006C40.3109 47.7382 39.977 47.9524 39.7265 48.4113C39.2636 49.2831 38.74 50.1167 38.2392 50.9657C37.7307 51.8299 37.3134 51.9216 36.4938 51.3786C35.4086 50.6521 34.331 49.9179 33.2307 49.2143C33.0258 49.0843 32.6995 49.0384 32.4642 49.0919C31.0907 49.4131 29.7247 49.7649 28.3664 50.132C28.1539 50.1932 27.9414 50.3615 27.8048 50.545C27.3419 51.1722 26.9169 51.8222 26.4768 52.4646C26.2339 52.8241 25.9228 53 25.4827 52.9847C24.7845 52.9618 24.0864 52.9388 23.3882 52.9847C22.7659 53.0306 22.3713 52.7859 22.0298 52.2735C19.7229 48.8931 17.3932 45.5204 15.0786 42.1476C14.7447 41.6658 14.4564 41.1381 14.0693 40.7022C13.3332 39.8609 13.0221 38.8973 13.1511 37.8189C13.3408 36.2128 12.7413 34.9051 11.8762 33.5973C9.92595 30.6375 8.08191 27.6089 6.17716 24.6186C6.01779 24.3739 5.68389 24.1597 5.39553 24.0909C4.48489 23.8615 3.55907 23.6856 2.63326 23.525C2.12482 23.4408 1.83645 23.1808 1.65432 22.7066C1.18383 21.4677 0.698155 20.2364 0.212482 18.9974C0.16695 18.8444 0.0758864 18.6762 0 18.5079C0 18.2785 0 18.0491 0 17.8196Z" fill="#005DA9"/>
<path d="M47.171 11.2577C47.1482 13.4144 46.3363 15.3035 45.2587 17.0854C43.7409 19.5786 42.1473 22.026 40.6372 24.5192C39.8707 25.7811 39.2105 27.1042 38.4896 28.3967C38.0419 29.2073 37.1768 29.2456 36.767 28.4349C34.7712 24.5039 32.32 20.8558 29.9979 17.1313C29.1328 15.747 28.4574 14.271 28.207 12.619C27.6151 8.70331 29.535 4.77993 32.9727 2.8756C38.6945 -0.29063 45.714 2.99797 46.9737 9.4528C47.0875 10.0493 47.1103 10.6535 47.1786 11.2577H47.171ZM37.6169 25.9952C37.708 25.8499 37.7839 25.7428 37.8446 25.6358C38.8235 23.9915 39.7949 22.3472 40.789 20.7105C41.8817 18.9133 43.0504 17.1619 44.0976 15.3417C45.0917 13.6286 45.5698 11.7778 45.1448 9.76637C44.2342 5.46824 40.3716 2.8756 36.0536 3.67099C31.971 4.42048 29.1708 8.70331 30.0966 12.772C30.4381 14.2786 31.1817 15.5941 31.9785 16.8866C33.7998 19.8616 35.6287 22.829 37.4575 25.7964C37.4955 25.8576 37.541 25.9035 37.6169 26.0029V25.9952Z" fill="#005DA9"/>
<path d="M5.86603 6.83723C5.88879 3.29625 8.54482 0.298266 11.9294 0.0229413C15.6857 -0.282975 18.7667 2.06493 19.389 5.6518C19.6698 7.28081 19.3435 8.78744 18.577 10.2023C18.152 10.9824 17.6664 11.7319 17.2035 12.489C16.0196 14.4698 14.8282 16.4506 13.652 18.4391C13.4243 18.8291 13.2042 19.1886 12.6882 19.1886C12.1646 19.1886 11.9597 18.8215 11.7245 18.4315C10.3661 16.16 9.00014 13.8886 7.619 11.6248C6.89049 10.4241 6.18475 9.21573 5.96468 7.79322C5.91156 7.47965 5.90397 7.15079 5.87362 6.82958L5.86603 6.83723ZM12.6882 16.2747C13.0373 15.6859 13.3333 15.1658 13.652 14.6534C14.7144 12.9479 15.8147 11.2654 16.8392 9.54459C17.4767 8.47388 17.8333 7.3114 17.5905 6.01125C17.2262 4.06868 16.1638 2.69971 14.297 2.10317C12.3543 1.47604 10.533 1.84314 9.10638 3.36508C7.74042 4.81818 7.3534 6.5619 8.05915 8.47388C8.27922 9.07042 8.58276 9.65166 8.92425 10.1947C9.88801 11.7625 10.8821 13.2997 11.8611 14.8599C12.1418 15.3035 12.3923 15.7623 12.6958 16.2747H12.6882Z" fill="#005DA9"/>
<path d="M24.0256 26.0411C28.8368 25.9952 32.578 31.2035 29.9448 36.144C29.5122 36.9623 28.9962 37.7348 28.5181 38.5378C27.3343 40.5186 26.1429 42.4994 24.9666 44.4879C24.739 44.8779 24.5189 45.2374 23.9953 45.2297C23.502 45.2221 23.2895 44.8856 23.0695 44.5108C21.5745 42.01 20.0492 39.5244 18.5542 37.0159C17.7954 35.754 17.211 34.4309 17.211 32.909C17.211 29.0697 20.2161 26.0411 24.0256 26.0411ZM24.0181 42.3082C24.352 41.7346 24.6403 41.2299 24.9439 40.7404C26.0139 39.0196 27.1218 37.3218 28.1615 35.5857C28.7989 34.515 29.1328 33.3525 28.9203 32.0524C28.465 29.2609 25.7331 27.3872 22.9329 27.999C20.1478 28.6108 18.4252 31.517 19.2903 34.232C19.5104 34.928 19.8671 35.5934 20.2465 36.2205C21.2027 37.7883 22.2044 39.3255 23.1833 40.8857C23.4641 41.3293 23.7145 41.7882 24.0256 42.3082H24.0181Z" fill="#005DA9"/>
<path d="M27.2888 16.0759C24.9211 14.4239 22.5459 12.7796 20.163 11.12C20.4059 10.5465 20.6411 9.98816 20.8991 9.38397C22.0298 10.1641 23.1074 10.99 24.2609 11.7013C25.6724 12.5731 26.9093 13.5291 27.1142 15.3417C27.137 15.5711 27.2888 15.7929 27.3798 16.0147C27.3495 16.0377 27.3267 16.0529 27.2964 16.0759H27.2888Z" fill="#005DA9"/>
<path d="M37.6397 5.49123C40.9028 5.49123 43.5057 8.14505 43.4981 11.4566C43.4981 14.7452 40.8648 17.3684 37.579 17.3608C34.3007 17.3531 31.7129 14.6917 31.7205 11.3342C31.7281 8.09916 34.3765 5.48358 37.6397 5.49123ZM33.5342 11.3801C33.4887 13.598 35.3403 15.51 37.5562 15.5406C39.7645 15.5712 41.6465 13.728 41.6844 11.4795C41.7224 9.254 39.8783 7.34967 37.6624 7.31908C35.4465 7.28849 33.5797 9.13163 33.5342 11.3801Z" fill="#005DA9"/>
<path d="M15.8602 6.86016C15.8602 8.63447 14.4639 10.057 12.7186 10.057C10.92 10.057 9.52373 8.66506 9.51614 6.86016C9.51614 5.08584 10.9049 3.67098 12.6578 3.66333C14.4564 3.66333 15.8602 5.05525 15.8602 6.86016ZM11.3298 6.81427C11.2995 7.51023 11.899 8.1756 12.6123 8.22148C13.3256 8.26737 14.001 7.64024 14.039 6.90604C14.0769 6.18714 13.4319 5.51412 12.7034 5.49883C12.0052 5.48353 11.3678 6.11066 11.3298 6.82192V6.81427Z" fill="#005DA9"/>
<path d="M23.9953 36.0905C22.212 36.0905 20.8308 34.6679 20.8384 32.8477C20.8384 31.0887 22.2575 29.6892 24.0256 29.6968C25.809 29.7045 27.1901 31.1193 27.1825 32.9395C27.1825 34.6909 25.7559 36.0981 23.9953 36.0905ZM24.0105 31.5247C23.282 31.5247 22.6445 32.19 22.6597 32.9166C22.6749 33.6278 23.3123 34.2473 24.0181 34.2473C24.739 34.2473 25.3916 33.5819 25.3688 32.8554C25.3461 32.1441 24.7086 31.517 24.0105 31.5247Z" fill="#005DA9"/>
</g>
<defs>
<clipPath id="clip0_184_112">
<rect width="58" height="53" fill="white"/>
</clipPath>
</defs>
</svg>
