<svg width="39" height="53" viewBox="0 0 39 53" fill="none" xmlns="http://www.w3.org/2000/svg">
<g clip-path="url(#clip0_184_121)">
<path d="M20.3544 45.2489C20.3544 47.5277 20.3625 49.7575 20.3381 51.9873C20.3381 52.2813 20.2161 52.6733 20.0046 52.8449C19.8012 53.0082 19.3863 53.0246 19.1097 52.9592C18.7192 52.8612 18.5972 52.4937 18.6053 52.0853C18.6053 50.0025 18.6053 47.9116 18.6053 45.8288C18.6053 45.6328 18.6053 45.4368 18.6053 45.2734C17.4257 45.0856 16.2705 44.9957 15.1723 44.7099C7.32999 42.7006 2.41635 37.7183 0.480182 29.8447C0.14664 28.4807 0.0490181 27.0187 0.0327478 25.6057C-0.0241984 20.5744 0.000207111 15.5431 0.00834228 10.5118C0.00834228 6.88539 2.44076 3.9777 5.99583 3.35696C6.58156 3.25895 7.1917 3.29162 7.7937 3.27528C8.02962 3.27528 8.2574 3.27528 8.54213 3.27528C8.54213 2.92407 8.54213 2.63004 8.54213 2.34417C8.58281 1.00467 9.55903 0.0327178 10.8769 4.70862e-05C12.2924 -0.0326236 13.3175 0.824982 13.3744 2.18898C13.4314 3.66733 13.4314 5.15385 13.3744 6.63219C13.3256 7.96352 12.2762 8.87013 10.942 8.84563C9.58344 8.82113 8.59095 7.84101 8.5584 6.50151C8.55027 6.04412 8.5584 5.58673 8.5584 5.13751C4.77555 4.4841 1.82248 6.91806 1.79808 10.4302C1.7574 15.5758 1.74113 20.7214 1.79808 25.8589C1.8957 34.0592 7.2161 40.1441 13.4965 42.4066C21.5503 45.3143 30.4583 41.941 34.7292 34.3614C36.3888 31.4129 37.1861 28.2438 37.1942 24.8788C37.2023 20.1415 37.2023 15.3961 37.1942 10.6589C37.1942 7.73483 35.4451 5.60307 32.6141 5.12118C31.9307 5.00683 31.2067 5.10484 30.4176 5.10484C30.4176 5.54589 30.4176 5.99512 30.4176 6.44434C30.3932 7.83284 29.417 8.82113 28.034 8.8538C26.651 8.88647 25.626 7.93902 25.5853 6.53418C25.5446 5.12934 25.5446 3.71634 25.5853 2.30333C25.626 0.86582 26.6347 -0.0326236 28.0909 4.70862e-05C29.4332 0.0245501 30.3932 1.01284 30.4176 2.38501C30.4176 2.65454 30.4176 2.92407 30.4176 3.29979C31.1172 3.29979 31.768 3.26711 32.4189 3.29979C35.9251 3.49581 38.927 6.59136 38.9433 10.1198C38.9758 15.3716 39.0816 20.6316 38.9189 25.8752C38.6341 35.1537 32.0446 43.1172 23.0065 44.8896C22.1523 45.0529 21.2818 45.1264 20.3625 45.2489H20.3544ZM11.6091 4.44326C11.6091 3.76534 11.6091 3.08743 11.6091 2.40951C11.6091 2.01746 11.4301 1.78877 11.0315 1.76426C10.6166 1.73976 10.3481 1.92762 10.34 2.35234C10.3237 3.7245 10.3237 5.09667 10.34 6.46884C10.34 6.89356 10.6085 7.07325 11.0315 7.04874C11.4464 7.02424 11.6172 6.81188 11.6091 6.41167C11.6091 5.75009 11.6091 5.09667 11.6091 4.43509V4.44326ZM27.3506 4.42692C27.3506 5.0885 27.3506 5.74192 27.3506 6.4035C27.3506 6.82822 27.5296 7.04875 27.9689 7.05691C28.4082 7.06508 28.6197 6.84455 28.6279 6.43617C28.636 5.10484 28.636 3.76534 28.6279 2.43401C28.6279 1.99296 28.4082 1.74793 27.9445 1.77243C27.5133 1.79693 27.3425 2.04196 27.3506 2.45852C27.3588 3.1201 27.3506 3.77351 27.3506 4.43509V4.42692Z" fill="#005DA9"/>
<path d="M24.0557 29.1994C24.0557 29.9018 24.0557 30.5389 24.0557 31.176C24.0557 32.2378 24.0638 33.2996 24.0557 34.3614C24.0476 35.3088 23.5269 35.8234 22.5995 35.8234C20.5006 35.8234 18.4099 35.8234 16.311 35.8234C15.3836 35.8234 14.8874 35.3415 14.8792 34.4186C14.8711 32.8994 14.8792 31.3802 14.8792 29.861C14.8792 29.665 14.8792 29.469 14.8792 29.2076C14.627 29.2076 14.4318 29.2076 14.2365 29.2076C12.7641 29.2076 11.2835 29.2076 9.81102 29.2076C8.73717 29.2076 8.24093 28.693 8.24093 27.6231C8.24093 25.5893 8.24093 23.5637 8.24093 21.53C8.24093 20.4764 8.72904 19.9863 9.77848 19.9863C11.2509 19.9781 12.7315 19.9863 14.204 19.9863C14.3993 19.9863 14.6026 19.9863 14.8548 19.9863C14.863 19.7494 14.8792 19.5534 14.8792 19.3574C14.8792 17.8382 14.8792 16.319 14.8792 14.7998C14.8792 13.8115 15.3755 13.3297 16.368 13.3297C18.4262 13.3297 20.4844 13.3297 22.5507 13.3297C23.5432 13.3297 24.0638 13.8442 24.0638 14.857C24.0638 16.5395 24.0638 18.2221 24.0638 19.9863C24.2998 19.9863 24.4869 19.9863 24.6821 19.9863C26.1546 19.9863 27.6352 19.9863 29.1076 19.9863C30.2222 19.9863 30.6533 20.4355 30.6533 21.5627C30.6533 23.5719 30.6533 25.5893 30.6533 27.5986C30.6533 28.7502 30.1896 29.2158 29.0182 29.2158C27.3993 29.2158 25.7722 29.2158 24.0638 29.2158L24.0557 29.1994ZM10.0551 21.7505V27.3862C10.291 27.3862 10.4862 27.3862 10.6815 27.3862C12.1539 27.3862 13.6345 27.3862 15.107 27.3862C16.1158 27.3862 16.6202 27.9008 16.6202 28.9054C16.6202 30.4246 16.6202 31.9438 16.6202 33.463C16.6202 33.6508 16.6202 33.8468 16.6202 34.0184H22.2334C22.2334 32.3685 22.2334 30.7595 22.2334 29.1504C22.2334 27.8436 22.6809 27.3944 23.9581 27.3944C25.398 27.3944 26.8379 27.3944 28.2778 27.3944C28.465 27.3944 28.6602 27.3944 28.831 27.3944V21.7587C27.1145 21.7587 25.4387 21.7587 23.7628 21.7587C22.7541 21.7587 22.2416 21.2605 22.2334 20.2477C22.2172 19.0062 22.2334 17.7565 22.2334 16.515C22.2334 16.0658 22.2334 15.6084 22.2334 15.1347H16.6202C16.6202 16.8091 16.6202 18.4344 16.6202 20.0598C16.6202 21.3013 16.1727 21.7505 14.9524 21.7505C13.3335 21.7505 11.7146 21.7505 10.0469 21.7505H10.0551Z" fill="#005DA9"/>
</g>
<defs>
<clipPath id="clip0_184_121">
<rect width="39" height="53" fill="white"/>
</clipPath>
</defs>
</svg>
