<svg width="53" height="53" viewBox="0 0 53 53" fill="none" xmlns="http://www.w3.org/2000/svg">
<g clip-path="url(#clip0_184_124)">
<path d="M53 17.4869C52.8771 18.2286 52.7721 18.9748 52.6282 19.7135C51.9146 23.3668 50.1771 26.518 47.8699 29.389C45.7096 32.0757 43.1535 34.3668 40.6259 36.6894C39.8254 37.4252 39.0428 38.1789 38.2482 38.9176C36.4492 40.5914 35.1929 42.6158 34.247 44.8739C33.6503 46.2975 32.9877 47.709 32.1931 49.0276C30.8259 51.2948 28.703 52.498 26.108 52.8517C24.303 53.0974 22.498 53.0659 20.726 52.5654C17.5523 51.6694 15.7248 49.0995 15.8927 45.803C15.9601 44.4694 16.2075 43.1777 16.6453 41.9175C16.7157 41.7137 16.7217 41.4395 16.6453 41.2387C15.8717 39.2053 15.7967 37.1 15.9961 34.9752C16.203 32.771 16.7802 30.6507 17.5852 28.5918C17.6212 28.4989 17.6377 28.397 17.6752 28.2547C16.5433 28.2547 15.4444 28.2577 14.3455 28.2547C13.6079 28.2532 13.3531 28.0494 13.2377 27.3256C12.9258 25.3732 12.626 23.4177 12.3202 21.4637C12.2992 21.3349 12.2647 21.2075 12.1418 21.0756C11.8539 22.3673 11.5646 23.6589 11.2767 24.9506C10.1779 29.8805 9.07897 34.8119 7.97708 39.7418C7.84515 40.3291 7.52283 40.6363 7.07008 40.6378C6.60534 40.6378 6.25004 40.3007 6.16009 39.6893C5.82278 37.4087 5.50496 35.1265 5.17814 32.8444C4.96226 31.3325 4.74638 29.8191 4.523 28.2562C3.47059 28.2562 2.43916 28.2562 1.40774 28.2562C1.21734 28.2562 1.02695 28.2637 0.838053 28.2502C0.341829 28.2127 0.00301782 27.8561 1.94863e-05 27.3766C-0.00297884 26.9001 0.34033 26.5015 0.82606 26.4955C2.34322 26.4805 3.86187 26.4775 5.38052 26.497C5.86176 26.503 6.12861 26.8356 6.19607 27.2897C6.51839 29.4849 6.82422 31.6831 7.13905 33.8798C7.16753 34.0806 7.21251 34.2784 7.32045 34.4747C7.91711 31.794 8.51528 29.1148 9.11045 26.4341C9.88102 22.9622 10.6486 19.4888 11.4192 16.0154C11.4372 15.9315 11.4671 15.8506 11.4866 15.7666C11.5991 15.2886 11.8884 14.9994 12.3906 15.0129C12.8898 15.0264 13.1747 15.3171 13.2526 15.8086C13.491 17.3385 13.7309 18.8669 13.9692 20.3968C14.2826 22.4152 14.5944 24.4351 14.9092 26.4685H18.2314C18.4323 25.3042 18.3423 24.1594 18.0575 23.0386C17.7022 21.642 17.2194 20.2755 16.8911 18.8729C16.1565 15.7262 16.7277 12.7113 18.029 9.82081C20.4321 4.48185 24.5908 1.37557 30.3176 0.313175C30.9743 0.191801 31.6369 0.103393 32.2965 0C33.5394 0 34.7807 0 36.0235 0C36.1914 0.0344642 36.3563 0.0869098 36.5257 0.100396C39.1522 0.301187 41.6918 0.8676 44.089 1.97945C48.5775 4.06079 51.5353 7.4233 52.6312 12.3112C52.7916 13.0275 52.8801 13.7617 53.0015 14.487V17.4884L53 17.4869ZM25.6642 33.703C26.1005 33.757 26.4198 33.8259 26.7406 33.8319C28.4872 33.8634 30.0628 33.3554 31.3131 32.1267C34.0041 29.4834 35.1315 26.3696 33.9366 22.6445C33.331 20.7595 32.3715 19.0527 31.1992 17.4614C30.7989 16.9174 30.8394 16.3765 31.2921 16.0528C31.7269 15.7412 32.2366 15.861 32.6264 16.381C33.7807 17.9184 34.7207 19.5787 35.3908 21.3813C36.1014 23.2963 36.4777 25.2488 36.0205 27.2987C35.4298 29.9494 34.139 32.1761 32.0222 33.8768C30.1812 35.3543 28.0344 35.8173 25.6747 35.5161C25.5998 35.9042 25.5443 36.2759 25.4544 36.6385C25.0436 38.3152 24.231 39.7058 22.6224 40.5015C22.1187 40.7502 21.6045 40.5854 21.3751 40.1478C21.1308 39.6803 21.3047 39.1724 21.8414 38.9056C22.522 38.567 23.0662 38.062 23.2956 37.3622C23.5804 36.4901 23.8323 35.5761 23.8847 34.6665C23.9642 33.2775 24.2205 31.9723 24.9611 30.7871C25.1125 30.5443 25.0316 30.4199 24.8967 30.2087C24.5743 29.7067 24.2685 29.1822 24.0451 28.6323C23.9237 28.3311 23.7978 28.2457 23.4979 28.2487C22.3421 28.2622 21.1862 28.2637 20.0304 28.2487C19.7275 28.2442 19.5866 28.3356 19.4712 28.6293C18.5942 30.865 17.9195 33.1516 17.7396 35.5581C17.6047 37.3607 17.7112 39.1439 18.4383 40.8296C18.6391 41.2956 18.6526 41.6957 18.4697 42.1617C17.9465 43.5029 17.6542 44.8904 17.6917 46.3439C17.7486 48.5736 18.945 50.1784 21.0903 50.8048C22.4965 51.2153 23.9342 51.2723 25.3914 51.1329C27.6716 50.9142 29.5636 50.0031 30.7389 47.9907C31.49 46.705 32.1106 45.3325 32.6953 43.9599C33.6728 41.6628 34.9576 39.5889 36.7821 37.8702C38.7535 36.0136 40.7443 34.1795 42.7038 32.3095C45.2703 29.858 47.6225 27.2282 49.2356 24.0261C50.9836 20.5572 51.6373 16.9025 50.9597 13.0545C50.1651 8.54413 47.5056 5.47981 43.4054 3.63972C39.6245 1.94498 35.6322 1.47597 31.532 1.94648C27.6866 2.38702 24.3675 3.91843 21.8803 6.95279C19.7605 9.5376 18.5282 12.503 18.4008 15.8805C18.3438 17.3805 18.6541 18.825 19.0949 20.244C19.5746 21.7889 20.1083 23.3188 20.1053 24.9656C20.1053 25.4601 20.1053 25.9546 20.1053 26.491C21.3227 26.491 22.51 26.497 23.6958 26.482C23.7963 26.482 23.9582 26.3621 23.9837 26.2692C24.2325 25.3387 24.7542 24.5865 25.4244 24.0036C24.8307 22.7029 24.1891 21.4652 23.6913 20.1706C22.5745 17.2636 22.6914 14.4031 24.4859 11.7928C25.258 10.6704 26.2144 9.62751 27.2534 8.74642C30.4211 6.06121 34.0476 5.42287 37.9304 6.88086C42.185 8.4782 44.9435 12.6813 45.0679 17.3984C45.1354 19.9803 44.4518 22.2954 42.8177 24.3108C42.4264 24.7918 41.9272 24.8652 41.5059 24.54C41.0981 24.2254 41.0622 23.6964 41.419 23.2079C43.9586 19.739 43.8911 16.1068 41.8852 12.4895C39.9498 8.99966 36.1404 7.37385 32.2426 8.17102C29.7794 8.676 27.9804 10.1894 26.4603 12.085C25.0316 13.8666 24.5189 15.9 24.9566 18.1447C25.261 19.6986 25.9716 21.0951 26.7152 22.4782C26.9475 22.9112 27.1559 23.2319 27.7271 22.9996C27.922 22.9202 28.1708 22.9682 28.3942 22.9682C30.6684 22.9787 32.4465 24.6045 32.7763 26.972C33.0566 28.9859 31.5859 31.1002 29.5246 31.6666C28.5441 31.9364 27.5862 31.833 26.5487 31.4778C26.2564 32.2166 25.9761 32.9253 25.6672 33.706L25.6642 33.703ZM28.2143 30.0094C29.685 30.0348 30.8888 28.8615 30.9053 27.3886C30.9203 25.9501 29.742 24.7483 28.3013 24.7303C26.8756 24.7124 25.6807 25.8617 25.6537 27.2777C25.6253 28.7881 26.7451 29.9839 28.2158 30.0094H28.2143Z" fill="#005DA9"/>
</g>
<defs>
<clipPath id="clip0_184_124">
<rect width="53" height="53" fill="white"/>
</clipPath>
</defs>
</svg>
