<svg width="56" height="48" viewBox="0 0 56 48" fill="none" xmlns="http://www.w3.org/2000/svg">
<g clip-path="url(#clip0_184_171)">
<path d="M56 39.5844C55.7801 40.4175 55.6259 41.2769 55.3297 42.0761C53.9284 45.8532 50.2043 48.2789 46.6517 47.9736C42.5084 47.6192 39.271 44.2191 38.5972 40.212C37.8161 35.566 40.1267 31.1103 44.2284 29.4536C44.5367 29.3292 44.6355 29.169 44.6337 28.8166C44.6216 25.6237 44.6545 22.429 44.6182 19.2362C44.5454 12.7525 39.8964 6.91904 33.9811 5.89372C30.2449 5.24535 26.7477 6.02942 23.5069 8.15358C23.351 8.25536 23.2072 8.37787 23.06 8.49661C22.9872 8.55504 22.9231 8.62478 22.9474 8.60216C23.15 9.50875 23.4116 10.3286 23.5051 11.173C23.6333 12.3265 23.2401 13.3556 22.5611 14.2433C20.1569 17.3834 18.9877 20.9984 19.012 25.0809C19.0241 27.0449 19.0189 29.0088 19.0085 30.9709C19.0085 31.2216 19.005 31.5438 18.8734 31.7059C18.6881 31.9321 18.3624 32.1866 18.1251 32.1564C17.8618 32.1225 17.6072 31.8077 17.4011 31.5646C17.3093 31.4571 17.3231 31.2234 17.3249 31.0481C17.3405 28.6092 17.3024 26.1665 17.3976 23.7314C17.55 19.828 18.8301 16.3656 21.0957 13.3424C21.7799 12.4302 22.1852 11.4331 21.6691 10.3437C21.3296 9.62749 20.7337 9.05263 20.2297 8.4363C20.1777 8.37222 19.9543 8.40237 19.8521 8.46646C15.4368 11.2126 12.435 15.148 11.2607 20.6121C11.1446 21.1511 11.077 21.7015 10.9645 22.2405C10.5037 24.442 8.93959 25.831 6.86969 25.8782C6.34312 25.8895 5.81481 25.8782 5.23108 25.8782C5.21723 26.0987 5.19298 26.2853 5.19298 26.4738C5.19124 31.6513 5.18605 36.8269 5.19471 42.0044C5.19817 44.1192 6.23399 45.6025 7.99211 46.0643C8.18438 46.1152 8.38704 46.1416 8.58623 46.1416C10.3721 46.1472 12.1596 46.1717 13.9455 46.1378C15.714 46.1039 17.2383 44.5112 17.292 42.5906C17.3509 40.3911 17.3162 38.1877 17.3266 35.9863C17.3266 35.7488 17.3301 35.5076 17.3716 35.2776C17.4496 34.8328 17.7129 34.5897 18.132 34.5708C18.5495 34.552 18.8318 34.7668 18.9548 35.1985C19.0016 35.3643 19.0154 35.549 19.0154 35.7243C19.0189 37.8862 19.0362 40.048 19.012 42.2099C18.9825 44.9843 17.3508 47.1952 14.8878 47.8379C14.6071 47.9114 14.3127 47.966 14.0251 47.9642C12.0037 47.9547 9.97541 48.0414 7.96266 47.8812C5.5498 47.689 3.59248 45.1652 3.52146 42.3889C3.49895 41.4805 3.518 40.5701 3.518 39.5768C2.70563 39.5768 1.92963 39.5768 1.15363 39.5768C0.265045 39.5749 0.00522494 39.2998 0.00522494 38.3555C0.00522494 37.1455 0.00176067 35.9354 0.00522494 34.7254C0.00868922 34.0035 0.303153 33.668 0.966561 33.6567C1.78586 33.6416 2.60516 33.6529 3.4695 33.6529V29.9437C2.69697 29.9437 1.90192 29.9437 1.1086 29.9437C0.252921 29.9437 0.00522494 29.6741 0.0034928 28.7449C0.0034928 27.5349 2.85279e-05 26.3249 0.0034928 25.1148C0.00695708 24.3873 0.287563 24.0593 0.961365 24.0443C1.79626 24.0254 2.63115 24.0405 3.49375 24.0405C3.6098 23.0698 3.70334 22.15 3.83152 21.2378C4.08268 19.468 4.585 17.7792 5.2588 16.1489C5.50303 15.5589 5.9326 15.3441 6.39508 15.557C6.8437 15.7625 7.01865 16.2789 6.78481 16.8575C6.00708 18.7725 5.4961 20.7628 5.30037 22.8455C5.26573 23.215 5.2536 23.5863 5.23108 23.9651C6.03999 23.9651 6.81945 24.0933 7.54695 23.9349C8.61395 23.7031 9.21154 22.8342 9.37955 21.6788C10.3166 15.2385 13.5505 10.5303 18.5772 7.16406C18.6673 7.10375 18.747 7.02836 18.8318 6.95862C17.9796 5.82775 16.7273 5.58461 15.5962 6.35926C13.0118 8.12908 10.7566 10.2966 8.91707 12.9598C8.85125 13.054 8.79063 13.1539 8.72134 13.2463C8.35932 13.7231 7.85874 13.8211 7.4794 13.4913C7.11738 13.1784 7.06888 12.6507 7.39279 12.1644C9.43325 9.1054 11.9743 6.63255 14.938 4.68556C16.1384 3.89772 17.4271 3.92599 18.7123 4.5442C18.8717 4.62148 19.1575 4.63467 19.2735 4.53101C21.9878 2.11471 25.1524 0.887708 28.5682 0.293998C32.3165 -0.35814 35.9505 0.0470903 39.375 1.86215C44.9698 4.82692 48.4462 9.64633 49.508 16.3355C49.8579 18.5407 49.7539 20.8345 49.825 23.0887C49.844 23.7107 49.4439 24.1178 48.9658 24.1027C48.486 24.0857 48.1517 23.6748 48.1448 23.0416C48.1309 21.8315 48.15 20.6215 48.1344 19.4114C48.0322 11.4897 43.1961 4.5197 36.1445 2.50109C30.6415 0.925404 25.4728 2.01293 20.7736 5.56011C20.6263 5.67131 20.4947 5.8089 20.2938 5.98984C20.6748 6.37811 21.0334 6.74376 21.3902 7.10752C21.4681 7.18668 21.5478 7.26396 21.6587 7.37328C23.053 6.17455 24.6102 5.34147 26.2939 4.79111C30.7143 3.34171 35.036 3.40014 39.0961 6.04638C43.1528 8.68886 45.5258 12.6017 46.1546 17.7227C46.2481 18.486 46.2654 19.2625 46.2689 20.0334C46.2827 22.7513 46.2741 25.4673 46.2741 28.1852C46.2741 28.3981 46.2741 28.6111 46.2741 28.8524H48.1413C48.1413 28.4283 48.1361 28.0004 48.1413 27.5745C48.1535 26.8733 48.4479 26.487 48.9676 26.4756C49.4976 26.4643 49.8059 26.8338 49.8319 27.533C49.8527 28.106 49.6881 28.7939 49.9272 29.218C50.1454 29.6063 50.8071 29.6817 51.2505 29.9418C53.8314 31.4628 55.3938 33.7905 55.8926 36.9475C55.9065 37.038 55.9602 37.1209 55.9948 37.2058V39.5863L56 39.5844ZM40.1215 38.3894C40.1129 42.6999 43.2515 46.1416 47.199 46.151C51.1345 46.1623 54.3424 42.7112 54.3597 38.4478C54.377 34.2089 51.1552 30.6768 47.2527 30.6561C43.3433 30.6373 40.1285 34.1222 40.1198 38.3875L40.1215 38.3894ZM1.66981 28.1135H3.4695V25.9083H1.66981V28.1135ZM3.48163 37.7316V35.5302H1.67847V37.7316H3.48163Z" fill="black"/>
<path d="M30.3159 28.6922C30.3574 24.5042 33.6658 20.5989 37.506 20.1842C37.7415 20.1578 37.9754 20.1107 38.211 20.0956C38.9575 20.0448 39.3819 20.3614 39.4027 20.9645C39.4234 21.5639 39.0805 21.9013 38.3374 21.9277C37.26 21.9654 36.2502 22.2632 35.3304 22.8569C33.1774 24.2441 32.0549 26.3192 31.9389 29.039C31.9146 29.6138 31.6427 30.0078 31.1993 30.0436C30.7662 30.0794 30.451 29.8494 30.328 29.4027C30.2674 29.1841 30.3176 28.9316 30.3176 28.6941L30.3159 28.6922Z" fill="black"/>
<path d="M33.5047 29.3029C33.6104 26.2005 36.0077 23.624 38.7791 23.6353C39.3784 23.6372 39.7266 23.9519 39.737 24.5023C39.7474 25.0451 39.4113 25.3787 38.8137 25.4202C36.7819 25.5578 35.372 27.0807 35.1988 29.3274C35.1451 30.0247 34.7779 30.4545 34.2773 30.4055C33.7992 30.3583 33.4857 29.9098 33.5065 29.3029H33.5047Z" fill="black"/>
<path d="M36.8651 29.8363C36.8911 28.4755 38.0845 27.2221 39.3212 27.256C39.7889 27.2692 40.1492 27.5934 40.1821 28.0665C40.2202 28.5999 39.9708 28.9825 39.5014 29.0428C38.8397 29.1276 38.566 29.4914 38.4812 30.1812C38.4205 30.6713 38.0706 30.9125 37.6116 30.8824C37.144 30.8503 36.8547 30.4263 36.8651 29.8363Z" fill="black"/>
<path d="M13.6804 40.2307C13.6804 40.6661 13.6943 41.1033 13.677 41.5387C13.6562 42.0985 13.3288 42.4434 12.8577 42.4397C12.416 42.4359 12.0557 42.0929 12.0436 41.5858C12.0228 40.6755 12.021 39.7633 12.0436 38.851C12.0557 38.3459 12.4177 38.0123 12.8681 38.0142C13.3271 38.0161 13.6354 38.3402 13.677 38.8642C13.6804 38.9038 13.6822 38.9434 13.6822 38.983C13.6822 39.3995 13.6822 39.816 13.6822 40.2307C13.6822 40.2307 13.6804 40.2307 13.6787 40.2307H13.6804Z" fill="black"/>
<path d="M10.1659 40.2515C10.1659 40.6681 10.1798 41.0846 10.1624 41.4992C10.1382 42.0816 9.79349 42.4492 9.30676 42.4379C8.84255 42.4266 8.52383 42.0779 8.51171 41.5068C8.49439 40.6549 8.49439 39.8029 8.51171 38.951C8.52383 38.3611 8.82176 38.0331 9.29983 38.018C9.79522 38.003 10.1278 38.3573 10.1642 38.9454C10.1659 38.9849 10.1642 39.0245 10.1642 39.0641C10.1642 39.4599 10.1642 39.8576 10.1642 40.2534L10.1659 40.2515Z" fill="black"/>
<path d="M47.2077 42.9166C44.9143 42.9147 43.0921 40.9187 43.0938 38.4138C43.0938 35.9315 44.9472 33.9016 47.2181 33.8941C49.4854 33.8884 51.4116 35.9937 51.3839 38.4534C51.3579 40.9319 49.4976 42.9184 47.2077 42.9166ZM49.6864 38.4044C49.6812 36.9003 48.6176 35.7468 47.2337 35.7393C45.8479 35.7336 44.7221 36.9493 44.7342 38.4383C44.7463 39.8877 45.8774 41.1185 47.2094 41.1298C48.5726 41.1411 49.6916 39.9103 49.6864 38.4025V38.4044Z" fill="black"/>
</g>
<defs>
<clipPath id="clip0_184_171">
<rect width="56" height="48" fill="white"/>
</clipPath>
</defs>
</svg>
