<svg width="81" height="31" viewBox="0 0 81 31" fill="none" xmlns="http://www.w3.org/2000/svg">
<g clip-path="url(#clip0_184_188)">
<path fill-rule="evenodd" clip-rule="evenodd" d="M66.0763 0.0185547L57.1179 19.915L58.9378 19.8967C60.5508 19.8807 61.7039 19.7931 62.3538 19.5578C63.3989 19.1793 64.3307 18.4845 65.0937 17.488C65.8572 16.4909 66.3706 15.1435 66.6558 13.4618H67.1366L66.4418 21.1297H49.868L58.9007 1.16529H57.8462C56.8097 1.16529 56.1309 1.2048 55.8004 1.27665C55.183 1.41112 54.6009 1.67358 54.0572 2.07439C53.5138 2.47102 53.0616 2.99892 52.7014 3.66166C52.3447 4.32425 52.0625 5.16164 51.8586 6.17361L51.3693 6.17346L51.8588 0.0185547H66.0763Z" fill="black"/>
<path fill-rule="evenodd" clip-rule="evenodd" d="M42.0978 1.22491L42.1092 7.37817L42.5205 6.64812C43.009 6.03487 43.1629 5.75512 43.8533 5.39762C44.5404 5.04184 45.5762 4.9231 46.4679 5.7669C46.8039 6.08489 47.2452 6.81643 47.3381 7.62244C47.416 8.46512 47.329 9.13092 47.0467 9.9007C46.7694 10.8909 45.8673 11.9933 45.2758 12.5933C44.9803 12.8932 44.3501 13.5381 43.5111 14.0999L42.0682 15.0662C42.0726 15.887 42.0374 15.3547 42.0814 17.5275C42.104 18.6367 42.1114 18.9714 42.1582 19.2671C42.1984 19.5195 42.2505 19.7253 42.5511 20.0205C42.7503 20.216 43.0455 20.4931 43.4476 20.548H44.6386V21.1262H33.5987V20.548H34.2621C34.8455 20.548 35.2398 20.41 35.5448 20.1565C35.812 19.9343 35.9316 19.7278 36.0145 19.3256C36.0812 19.0018 36.1103 18.5979 36.1117 17.5414L36.1313 3.79C36.1326 2.61159 36.12 1.956 36.0313 1.68348C35.9381 1.39665 35.8092 1.20717 35.4983 0.930992C35.2254 0.688213 34.8266 0.585272 34.2618 0.585272H33.5987V0.00683594H50.4408V6.06737H49.8814C49.785 4.63783 49.4558 3.60246 48.9177 2.89104C48.3798 2.18029 47.6433 1.70793 46.6562 1.43973C46.0211 1.2671 44.7158 1.22014 43.1167 1.22327L42.0978 1.22491ZM38.6972 5.15365C39.4391 5.00375 40.3365 5.15551 40.932 5.89831C41.2096 6.2444 41.8316 6.91699 42.1117 7.60626L42.071 15.0634C40.6551 14.3643 38.0845 12.3651 37.1739 10.3185C36.7862 9.44682 36.6002 8.48286 36.794 7.32301C36.9716 6.26043 37.8254 5.32979 38.6972 5.15365Z" fill="black"/>
<path fill-rule="evenodd" clip-rule="evenodd" d="M21.3392 0L29.1951 11.3562V4.01886C29.1951 2.75093 29.0436 1.89229 28.7309 1.44728C28.3064 0.843577 27.5874 0.55421 26.5841 0.578138V0H32.5569V0.578063C31.7923 0.689725 31.277 0.837241 31.0175 1.02061C30.7549 1.20398 30.55 1.49916 30.4032 1.90973C30.2567 2.32038 30.1848 3.02218 30.1848 4.01901L30.185 21.6018H29.731L17.5052 4.51635V17.4435C17.5052 18.6593 17.7424 19.4789 18.2184 19.9035C18.6946 20.3281 19.239 20.5414 19.8499 20.5414L20.2768 20.5413V21.1194H13.8635V20.5413C14.8601 20.5334 15.5529 20.2942 15.9454 19.8277C16.3348 19.3612 16.5325 18.5638 16.5325 17.4435L16.5326 2.53968L16.1435 1.97749C15.7612 1.41926 15.4231 1.04864 15.1296 0.873096C14.8361 0.697478 14.4162 0.59804 13.8634 0.578138L13.8635 0L21.3392 0Z" fill="black"/>
</g>
<defs>
<clipPath id="clip0_184_188">
<rect width="81" height="31" fill="white"/>
</clipPath>
</defs>
</svg>
