<svg width="51" height="55" viewBox="0 0 51 55" fill="none" xmlns="http://www.w3.org/2000/svg">
<g clip-path="url(#clip0_184_148)">
<path d="M39.4885 47.9505C41.0006 46.7131 42.2467 45.3001 43.3181 43.7344C45.9927 39.8238 47.2464 35.4779 47.1704 30.7424C47.1552 29.7571 46.9957 28.7795 46.8817 27.8019C46.8057 27.1832 47.0793 26.6715 47.6035 26.5569C48.1962 26.4271 48.6673 26.7708 48.7889 27.4887C49.2068 30.0856 49.2068 32.6748 48.7585 35.2717C47.8695 40.4807 45.5292 44.9259 41.7148 48.5615C38.3412 51.7846 34.3141 53.7705 29.7475 54.6336C28.9041 54.7939 28.3722 54.4961 28.319 53.8469C28.2658 53.2587 28.5773 52.8845 29.2384 52.7623C32.0954 52.2506 34.7396 51.2194 37.2014 49.6766C37.6117 49.4169 37.6877 49.1343 37.6421 48.7066C36.9887 43.0699 32.3841 38.5407 26.7689 38.0213C20.3483 37.4332 14.8775 41.4125 13.5326 47.7442C13.1223 49.6613 13.0083 49.1725 14.5736 50.1196C16.7619 51.4486 19.1478 52.2582 21.6552 52.7394C22.4455 52.8921 22.7646 53.2893 22.6582 53.9156C22.5594 54.4961 22.0504 54.7634 21.2677 54.6183C17.3774 53.8927 13.8518 52.3422 10.7592 49.8446C6.01028 46.0028 3.1685 41.0306 2.17312 34.9967C1.76281 32.522 1.79321 30.0397 2.17312 27.5651C2.2795 26.8624 2.62142 26.5264 3.1685 26.534C3.70799 26.5416 4.04231 26.8548 4.0955 27.3512C4.14109 27.7484 4.02712 28.1685 3.98153 28.5809C3.1837 36.2264 5.61517 42.6345 11.2987 47.7901C11.3367 47.8282 11.3975 47.8512 11.4887 47.9046C12.6208 42.3443 15.8349 38.5865 21.2069 36.6236C18.8439 34.8134 17.6965 32.4609 17.9701 29.5204C18.1524 27.5116 19.0794 25.8237 20.6143 24.5252C23.8132 21.8214 28.4178 22.1881 31.1987 25.3501C33.8354 28.3518 33.881 33.5226 29.7931 36.6236C35.1119 38.5636 38.3336 42.3137 39.4961 47.9428L39.4885 47.9505ZM31.1456 30.3605C31.1684 27.2672 28.5925 24.6551 25.5 24.6398C22.4379 24.6245 19.8696 27.1756 19.824 30.2689C19.7785 33.3622 22.3391 35.982 25.4392 36.0202C28.5165 36.0584 31.1152 33.4691 31.138 30.3605H31.1456Z" fill="black"/>
<path d="M35.8641 8.04274C35.7729 8.17258 35.621 8.46282 35.4006 8.68432C34.1469 9.93692 32.878 11.1819 31.6015 12.4039C31.3279 12.6636 31.2519 12.908 31.3203 13.2823C31.647 15.0619 31.9206 16.8568 32.2397 18.644C32.3233 19.1023 32.2701 19.5529 31.8598 19.721C31.5255 19.8585 31.0316 19.8585 30.7125 19.7057C29.1472 18.9343 27.5971 18.117 26.0775 17.2616C25.6368 17.0172 25.31 17.0477 24.8921 17.2769C23.3953 18.0941 21.868 18.8732 20.3635 19.6828C19.938 19.9119 19.5201 20.0418 19.0946 19.7286C18.6919 19.4307 18.6767 19.0183 18.7603 18.56C19.0718 16.7957 19.3529 15.0237 19.6721 13.2594C19.7405 12.9004 19.6721 12.6713 19.4137 12.4269C18.122 11.1819 16.8531 9.92164 15.5614 8.66904C15.2271 8.34061 15.0067 7.98164 15.1587 7.51573C15.3106 7.04982 15.683 6.89706 16.1541 6.82832C17.9397 6.58391 19.7177 6.28604 21.5109 6.04927C21.8604 6.00344 22.02 5.85068 22.1567 5.56808C22.9166 3.99469 23.6992 2.4213 24.459 0.840267C24.6642 0.389636 24.9225 0.00774418 25.4696 0.000106355C26.0547 -0.00753147 26.313 0.397273 26.541 0.870819C27.2856 2.41366 28.053 3.94886 28.7901 5.4917C28.9572 5.83541 29.1396 6.01108 29.5651 6.06454C31.3735 6.29368 33.1743 6.58391 34.9751 6.85887C35.5678 6.95053 35.8793 7.30951 35.8641 8.04274ZM20.9486 17.1929C22.1871 16.5436 23.3421 15.9937 24.4362 15.3369C25.1885 14.8862 25.8115 14.8939 26.5562 15.3369C27.6503 15.9861 28.7977 16.536 29.9754 17.1547C29.9754 16.9484 29.9982 16.811 29.9754 16.6735C29.7703 15.4514 29.5803 14.2217 29.3372 13.0073C29.208 12.381 29.3372 11.9075 29.8159 11.4721C30.4465 10.9069 31.0316 10.2959 31.6394 9.70778C32.027 9.33353 32.4297 8.97455 32.9236 8.50865C32.5437 8.44754 32.3537 8.40935 32.1637 8.3788C30.9252 8.1955 29.6867 7.99691 28.4406 7.82888C27.9619 7.76014 27.6655 7.51573 27.4604 7.08801C26.9057 5.9347 26.3358 4.78902 25.7659 3.64335C25.69 3.49823 25.5988 3.36075 25.4772 3.13925C24.8237 4.47587 24.2007 5.72848 23.6004 6.98872C23.3573 7.49281 23.0229 7.79833 22.4455 7.85943C21.7616 7.92817 21.0854 8.04274 20.4091 8.14203C19.6873 8.24896 18.973 8.36353 18.3272 8.46282C19.0338 9.21896 19.6949 9.97511 20.4015 10.6854C22.0428 12.3428 21.8452 11.8082 21.4957 13.9391C21.4729 14.0919 21.4425 14.2523 21.4197 14.405C21.2753 15.291 21.131 16.177 20.9638 17.1852L20.9486 17.1929Z" fill="black"/>
<path d="M13.0463 23.9138C12.902 23.8527 12.6588 23.7687 12.4385 23.6465C11.3063 23.0507 10.1742 22.4779 9.06479 21.8439C8.65448 21.6072 8.34295 21.6377 7.94024 21.8592C6.79289 22.5008 5.61515 23.0813 4.46021 23.7076C4.06509 23.9214 3.68518 24.0131 3.30526 23.7229C2.91774 23.4326 2.84176 23.0507 2.93294 22.5695C3.19128 21.2176 3.41923 19.8581 3.61679 18.4909C3.64718 18.2618 3.54841 17.941 3.39644 17.7806C2.44665 16.803 1.47406 15.8559 0.493877 14.9164C0.144354 14.5804 -0.11399 14.2138 0.0531737 13.7173C0.227935 13.1979 0.676237 13.0757 1.17013 13.007C2.53023 12.8313 3.89033 12.6327 5.24283 12.4036C5.42519 12.373 5.62275 12.1592 5.71393 11.9759C6.3294 10.7691 6.93726 9.54704 7.51474 8.32499C7.71989 7.88963 7.99343 7.59176 8.47972 7.58412C8.98881 7.57648 9.28515 7.88963 9.4979 8.34027C10.083 9.56996 10.6756 10.7844 11.2987 11.9911C11.3975 12.1897 11.671 12.373 11.8914 12.4112C13.2667 12.6404 14.6496 12.7931 16.0173 13.0528C16.3592 13.1215 16.7543 13.4347 16.9367 13.7402C17.157 14.1221 16.9139 14.5269 16.5871 14.8401C15.6222 15.7719 14.68 16.719 13.715 17.6431C13.4186 17.9257 13.3047 18.1854 13.3958 18.6208C13.6694 19.988 13.8821 21.3704 14.1101 22.7528C14.2089 23.3639 13.7302 23.9214 13.0463 23.8985V23.9138ZM3.15329 14.6797C3.83714 15.4053 4.4754 16.1232 5.15925 16.7953C5.60755 17.2307 5.73673 17.6813 5.61515 18.2847C5.42519 19.2013 5.29602 20.1254 5.12126 21.1871C6.06345 20.6906 6.89167 20.2858 7.6819 19.8199C8.25937 19.4839 8.76846 19.4915 9.33833 19.8199C10.1286 20.2782 10.9492 20.6754 11.8838 21.1718C11.7014 20.1025 11.5646 19.1707 11.3823 18.2465C11.2683 17.6737 11.3823 17.2307 11.823 16.8106C12.5296 16.1385 13.1831 15.4129 13.8821 14.6873C13.2971 14.6033 12.7196 14.5269 12.1497 14.4276C9.9538 14.061 10.3641 14.4505 9.39912 12.4952C9.11798 11.93 8.83684 11.3572 8.51012 10.7004C8.04662 11.6398 7.60592 12.4341 7.25639 13.259C6.97525 13.9235 6.52695 14.229 5.8355 14.2978C4.9389 14.3971 4.0499 14.5422 3.16089 14.6644L3.15329 14.6797Z" fill="black"/>
<path d="M47.0413 23.9141C46.8969 23.853 46.6386 23.7614 46.403 23.6392C45.2177 23.0205 44.0475 22.3789 42.8546 21.7832C42.657 21.6839 42.3227 21.6839 42.1251 21.7832C40.8942 22.3942 39.6861 23.0434 38.4779 23.6927C38.0752 23.9065 37.6725 24.0364 37.2698 23.7232C36.8823 23.4253 36.8215 23.0434 36.9127 22.5623C37.171 21.2104 37.399 19.8508 37.5965 18.4837C37.6269 18.2622 37.5206 17.9337 37.3686 17.7733C36.4188 16.7957 35.4462 15.8486 34.466 14.9091C34.1165 14.5731 33.8658 14.2065 34.0405 13.71C34.2077 13.2136 34.6332 13.0837 35.1119 13.015C36.4948 12.8317 37.8701 12.6331 39.2454 12.4039C39.4201 12.3734 39.6177 12.1519 39.7165 11.9686C40.3319 10.7618 40.9398 9.53976 41.5173 8.3177C41.7224 7.88235 42.0036 7.59211 42.4899 7.58447C42.9686 7.58447 43.2649 7.85943 43.47 8.29479C44.0399 9.50157 44.6478 10.7007 45.2253 11.9075C45.3772 12.2283 45.552 12.4039 45.9547 12.4498C47.3148 12.6025 48.6749 12.8011 50.0274 13.0532C50.3617 13.1143 50.7417 13.4045 50.9164 13.7024C51.152 14.0843 50.9392 14.4967 50.6125 14.8099C49.6095 15.7875 48.5989 16.7575 47.6263 17.7581C47.4592 17.9337 47.3528 18.2774 47.3832 18.5142C47.5883 19.9196 47.8467 21.3096 48.0822 22.7074C48.1886 23.3413 47.7631 23.8912 47.0489 23.9065L47.0413 23.9141ZM42.4747 10.7007C42.0264 11.6172 41.5781 12.3963 41.2437 13.2288C40.9398 13.9773 40.4155 14.2523 39.6709 14.3287C38.8123 14.4127 37.9537 14.5731 37.1027 14.6953C37.8017 15.4285 38.4476 16.1388 39.139 16.8033C39.5873 17.2387 39.7089 17.6893 39.5797 18.2927C39.3897 19.2016 39.2682 20.1258 39.0934 21.1798C39.7697 20.8285 40.3015 20.5382 40.8334 20.2633C42.6646 19.3238 42.2011 19.2551 44.0855 20.2556C44.6326 20.5459 45.1797 20.8208 45.8407 21.1645C45.666 20.1105 45.5444 19.2016 45.3544 18.3003C45.2177 17.674 45.3696 17.2081 45.8331 16.7728C46.5246 16.1159 47.1628 15.398 47.8315 14.6953C46.8665 14.5502 45.9015 14.3898 44.9289 14.2752C44.3515 14.2065 44.0171 13.9086 43.7816 13.4045C43.3789 12.5338 42.9458 11.686 42.4671 10.7083L42.4747 10.7007Z" fill="black"/>
<path d="M25.4848 55.0001C24.9377 55.0001 24.5274 54.5801 24.5426 54.0225C24.5578 53.4955 24.9529 53.106 25.4848 53.106C26.0319 53.106 26.4422 53.526 26.427 54.0836C26.4118 54.6106 26.0091 55.0001 25.4848 55.0001Z" fill="black"/>
</g>
<defs>
<clipPath id="clip0_184_148">
<rect width="51" height="55" fill="white"/>
</clipPath>
</defs>
</svg>
