<svg width="42" height="53" viewBox="0 0 42 53" fill="none" xmlns="http://www.w3.org/2000/svg">
<g clip-path="url(#clip0_184_154)">
<path d="M14.2848 52.9997C13.5831 52.7311 13.1734 52.1923 12.8454 51.5388C12.2441 50.3402 11.5833 49.1699 10.9774 47.9729C10.7796 47.5817 10.552 47.5173 10.1548 47.6446C8.79856 48.0813 7.42975 48.4771 6.07349 48.9154C5.24938 49.1809 4.50532 49.129 3.89469 48.4646C3.28249 47.7985 3.30447 47.0476 3.63569 46.2528C4.96997 43.0482 6.28698 39.8357 7.63382 36.6358C7.80335 36.2321 7.73742 35.9792 7.39208 35.7813C7.08284 35.6022 6.76732 35.4137 6.42983 35.3053C4.5116 34.6911 3.4065 33.2773 3.35941 31.2508C3.33743 30.2926 2.94971 29.5778 2.21036 28.9998C0.726955 27.8389 0.213649 26.0654 0.860383 24.284C1.19631 23.3603 1.12724 22.5167 0.624921 21.6685C-0.348318 20.0253 -0.180356 18.2408 1.0723 16.7877C1.69548 16.0651 1.95135 15.2891 1.80066 14.3183C1.48671 12.2934 2.27001 10.7917 4.06422 9.824C4.85537 9.39672 5.33885 8.77622 5.52722 7.88082C5.94791 5.88108 7.24295 4.72177 9.27734 4.46886C10.1658 4.35733 10.8518 3.94419 11.3494 3.18231C12.4718 1.46219 14.0792 0.840122 16.0743 1.35066C16.9534 1.5753 17.7288 1.42449 18.465 0.899816C20.1431 -0.295626 21.8667 -0.298768 23.5353 0.895103C24.2888 1.43392 25.0784 1.57529 25.9747 1.33966C27.8803 0.83698 29.5584 1.48104 30.6242 3.13361C31.1517 3.95204 31.8706 4.3856 32.825 4.47671C34.58 4.64637 36.0351 5.86066 36.393 7.57607C36.6269 8.69453 37.1905 9.44227 38.203 9.97794C39.7711 10.8074 40.5073 12.4238 40.206 14.312C40.0474 15.3064 40.33 16.0871 40.961 16.8238C42.187 18.2518 42.3188 20.0253 41.4005 21.6732C41.1886 22.0549 41.005 22.49 40.9626 22.9173C40.9202 23.3446 41.0065 23.8111 41.1447 24.2243C41.771 26.0826 41.2938 27.8216 39.7601 29.0327C39.0365 29.603 38.6707 30.313 38.6456 31.2493C38.5938 33.3055 37.5044 34.6911 35.5281 35.3131C35.3806 35.3587 35.2361 35.4152 35.0964 35.4812C34.2252 35.8959 34.1577 36.0766 34.5235 36.9641C35.817 40.0933 37.1073 43.2241 38.4039 46.3533C38.655 46.9612 38.6912 47.555 38.3599 48.1394C37.933 48.8934 37.0869 49.2453 36.2345 48.9955C34.7856 48.5698 33.3383 48.1331 31.9004 47.6697C31.4641 47.5283 31.2239 47.5849 31.0057 48.0231C30.4155 49.2092 29.7562 50.3606 29.1628 51.5435C28.8347 52.197 28.4235 52.7342 27.7234 53.0044H26.7925C26.0516 52.7232 25.6388 52.1671 25.3436 51.4414C24.0203 48.1818 22.6625 44.9348 21.3173 41.6846C21.2356 41.4867 21.1462 41.2935 21.0033 40.9699C20.862 41.2903 20.771 41.4851 20.6894 41.6831C19.3425 44.9348 17.9847 48.1818 16.6614 51.4414C16.3663 52.1671 15.9519 52.7201 15.2125 53.0044H14.2817L14.2848 52.9997ZM29.5207 38.0151C30.9978 38.0983 31.8047 37.5956 32.3745 36.2368C32.9004 34.9785 33.8344 34.1837 35.1247 33.78C36.404 33.3794 37.0068 32.5829 37.0523 31.2414C37.0994 29.8339 37.6379 28.6872 38.7665 27.8122C39.8041 27.0079 40.0882 25.9758 39.633 24.7364C39.1511 23.4231 39.2657 22.179 39.9721 20.9725C40.6769 19.7677 40.5654 18.7419 39.6565 17.7051C38.7477 16.6683 38.407 15.4729 38.6582 14.1141C38.8764 12.9328 38.4227 11.8426 37.3804 11.3148C36.0053 10.6173 35.2016 9.54281 34.8861 8.03948C34.6334 6.83147 33.7512 6.14028 32.5252 6.01932C31.1956 5.88894 30.1533 5.25273 29.4093 4.14055C28.5695 2.88384 27.6982 2.53668 26.2415 2.89641C24.9653 3.21058 23.788 2.99851 22.7112 2.23978C21.4758 1.36794 20.5371 1.3648 19.308 2.23664C18.2484 2.98752 17.0868 3.20744 15.8279 2.91212C14.2675 2.54767 13.4717 2.85714 12.5785 4.17825C11.8517 5.2543 10.8329 5.87637 9.54733 6.01618C8.2052 6.16227 7.36225 6.8299 7.0954 8.12902C6.80028 9.56166 6.02483 10.5874 4.72979 11.2598C3.61057 11.8426 3.12709 12.8825 3.3547 14.1062C3.60743 15.4666 3.2668 16.6636 2.36263 17.702C1.44747 18.7529 1.33131 19.7708 2.03612 20.9678C2.74564 22.1743 2.8618 23.4184 2.38303 24.7317C1.92781 25.9774 2.20722 27.0063 3.24168 27.809C4.38445 28.6966 4.92915 29.859 4.96055 31.287C4.9888 32.5358 5.62769 33.4045 6.83011 33.7658C8.20834 34.1805 9.15647 35.0382 9.70117 36.3719C10.1909 37.5705 11.0857 38.1172 12.3791 38.0261C13.7888 37.9271 14.9739 38.3748 15.9534 39.4053C16.8827 40.3839 17.9078 40.5599 19.1385 39.9834C20.3848 39.399 21.6234 39.3959 22.8697 39.9802C24.1224 40.5677 25.138 40.3792 26.094 39.3754C27.0311 38.3921 28.1739 37.9491 29.5239 38.0198L29.5207 38.0151ZM23.0989 41.7742C23.1303 41.8888 23.1397 41.9391 23.1586 41.9862C24.4096 45.018 25.6592 48.0514 26.9197 51.0785C26.9777 51.2183 27.1363 51.4084 27.2493 51.41C27.367 51.41 27.5271 51.234 27.6009 51.0974C28.3026 49.7967 28.987 48.4866 29.6824 47.1827C30.2758 46.0705 31.0355 45.7611 32.2505 46.1334C33.6115 46.5497 34.9693 46.9769 36.3334 47.3807C36.5249 47.4372 36.7478 47.3885 36.955 47.3885C36.9283 47.1812 36.9456 46.9549 36.8687 46.768C35.8672 44.3206 34.8516 41.8794 33.8391 39.4367C33.646 38.9717 33.4529 38.5083 33.2598 38.048C33.1861 38.0763 33.1672 38.0779 33.1562 38.0889C33.0589 38.1863 32.9663 38.2868 32.869 38.3826C31.935 39.3142 30.8048 39.7289 29.4987 39.6095C28.593 39.5278 27.8442 39.7949 27.2258 40.4578C27.0735 40.6211 26.9149 40.7814 26.7438 40.9228C25.6921 41.7883 24.485 42.0349 23.0989 41.7695V41.7742ZM8.77031 37.9899C7.53178 40.9762 6.32151 43.8917 5.12066 46.8104C5.05002 46.9832 5.07043 47.1937 5.04845 47.3854C5.25566 47.3869 5.47856 47.4388 5.67007 47.3822C7.03575 46.9785 8.39357 46.5512 9.75454 46.1349C11.0025 45.7532 11.7293 46.058 12.3493 47.222C12.9961 48.4363 13.6318 49.6553 14.2895 50.8633C14.4057 51.0754 14.6003 51.245 14.7573 51.4351C14.9033 51.2387 15.0964 51.0628 15.1874 50.8445C16.28 48.2305 17.3568 45.6103 18.4383 42.9916C18.5969 42.6052 18.757 42.2203 18.9265 41.8087C18.4635 41.8354 18.0695 41.892 17.6802 41.8716C16.5452 41.8119 15.5908 41.3438 14.8279 40.5049C14.288 39.9127 13.6224 39.5215 12.8312 39.6016C11.216 39.7666 9.8864 39.2875 8.77188 37.9899H8.77031Z" fill="black"/>
<path d="M20.9984 9.7676C21.6561 9.76446 22.193 10.1572 22.4583 10.8751C23.0893 12.5826 23.7188 14.2917 24.3231 16.0087C24.4534 16.3779 24.6371 16.491 25.0248 16.5004C26.8316 16.5428 28.6384 16.6245 30.4451 16.6905C31.1876 16.7172 31.7417 17.0926 31.9552 17.7257C32.1766 18.3776 31.9945 18.9808 31.387 19.4615C29.9428 20.6051 28.4955 21.7456 27.0309 22.864C26.7531 23.0761 26.6903 23.2552 26.7876 23.5851C27.2994 25.3146 27.7876 27.0504 28.2789 28.7847C28.5128 29.6094 28.3432 30.2221 27.775 30.6336C27.1895 31.0593 26.5945 31.0373 25.863 30.5472C24.3624 29.5403 22.8601 28.5365 21.3705 27.5139C21.0989 27.3285 20.9184 27.3222 20.6437 27.5123C19.1116 28.5648 17.5717 29.6047 16.0192 30.6258C14.9926 31.3013 13.7399 30.7357 13.6206 29.5544C13.5955 29.3078 13.6583 29.0408 13.7274 28.7973C14.214 27.0614 14.7069 25.3272 15.2155 23.5976C15.3097 23.2772 15.2751 23.0903 14.9863 22.8719C13.561 21.7864 12.1623 20.6695 10.7527 19.5652C10.0353 19.0044 9.81715 18.442 10.051 17.7383C10.2755 17.0612 10.8422 16.7156 11.7071 16.6873C13.5312 16.6276 15.3552 16.5444 17.1792 16.4957C17.512 16.4863 17.5685 16.2946 17.6517 16.0653C18.2812 14.3389 18.9075 12.6109 19.5448 10.8876C19.8117 10.1635 20.3391 9.77074 20.9953 9.76917L20.9984 9.7676ZM21.0141 11.5066C20.9042 11.783 20.8446 11.9213 20.7928 12.0611C20.2041 13.676 19.6139 15.2892 19.0268 16.9057C18.7647 17.6283 18.2796 18.0273 17.4869 18.0509C15.7822 18.1011 14.079 18.1718 12.3743 18.2347C12.1812 18.2425 11.9881 18.2535 11.6647 18.2676C13.2565 19.5165 14.7257 20.6821 16.2091 21.8273C16.8512 22.3221 17.0364 22.9379 16.8198 23.6982C16.5419 24.6737 16.2594 25.6461 15.9815 26.6216C15.7445 27.4573 15.5106 28.293 15.239 29.2575C16.8841 28.1501 18.4099 27.1258 19.9341 26.0969C20.7583 25.5408 21.2402 25.533 22.0643 26.0875C23.4786 27.0379 24.8914 27.9914 26.3057 28.9418C26.4219 29.0203 26.5475 29.0832 26.7343 29.1931C26.6887 28.9905 26.6668 28.8742 26.6354 28.7611C26.1629 27.0913 25.6872 25.423 25.2163 23.7532C24.9652 22.8625 25.1237 22.3708 25.8426 21.8068C27.2115 20.7324 28.5818 19.6594 29.9491 18.585C30.048 18.5064 30.1343 18.4137 30.3258 18.2347C29.9946 18.2347 29.7953 18.2409 29.5943 18.2347C27.9414 18.1765 26.29 18.098 24.6371 18.0603C23.7596 18.0414 23.2432 17.6346 22.9543 16.8161C22.3453 15.085 21.6985 13.3681 21.0157 11.5066H21.0141Z" fill="black"/>
<path d="M20.9215 5.43506C28.6054 5.51046 34.8954 10.8295 36.2767 18.3006C36.3175 18.5205 36.3474 18.742 36.3756 18.9635C36.4368 19.4238 36.1747 19.8181 35.7618 19.8966C35.3098 19.983 34.9534 19.7678 34.8404 19.2902C34.6662 18.5566 34.583 17.7948 34.3538 17.0784C32.5784 11.5317 28.8032 8.15583 23.0862 7.2023C15.6064 5.95345 8.4766 11.2112 7.26633 18.6776C7.23337 18.8802 7.22238 19.0907 7.16901 19.2871C7.04029 19.7599 6.69652 19.9751 6.24286 19.8903C5.83316 19.8133 5.57101 19.4128 5.63537 18.9525C5.99798 16.3291 6.91785 13.921 8.50486 11.8003C11.2111 8.18253 14.8325 6.11211 19.3078 5.53245C19.3753 5.52303 19.4444 5.51989 19.5135 5.51674C20.0299 5.4869 20.5448 5.45705 20.9215 5.43506Z" fill="black"/>
<path d="M20.9733 36.4256C13.4621 36.4382 7.03244 31.0139 5.72798 23.5805C5.69502 23.3951 5.67932 23.205 5.64793 23.0181C5.56473 22.4997 5.81275 22.085 6.26641 21.9876C6.69965 21.8949 7.08424 22.2012 7.20668 22.7306C7.42017 23.6496 7.53947 24.6031 7.86597 25.4797C9.78891 30.6604 13.4825 33.8195 18.9374 34.6866C26.4737 35.8868 33.4857 30.7343 34.7415 23.2192C34.776 23.0165 34.7855 22.8076 34.8388 22.6097C34.9613 22.151 35.3553 21.8934 35.7587 21.986C36.1715 22.0819 36.44 22.4793 36.3772 22.9286C36.0805 25.0477 35.4369 27.0521 34.3114 28.8775C31.7182 33.0859 27.9587 35.5506 23.0846 36.3203C22.7456 36.3737 22.4002 36.4052 22.058 36.4224C21.697 36.4397 21.3344 36.4256 20.9733 36.4256Z" fill="black"/>
</g>
<defs>
<clipPath id="clip0_184_154">
<rect width="42" height="53" fill="white"/>
</clipPath>
</defs>
</svg>
