<svg width="49" height="52" viewBox="0 0 49 52" fill="none" xmlns="http://www.w3.org/2000/svg">
<g clip-path="url(#clip0_184_159)">
<path d="M23.5096 36.3688C22.6585 36.3688 22.0193 36.0897 21.5015 35.5688C19.2524 33.3078 17.0016 31.0484 14.7764 28.7636C13.6946 27.6542 13.7219 26.0459 14.7832 24.9094C15.1165 24.5526 15.4634 24.2059 15.8138 23.8643C17.0067 22.7058 18.6764 22.6957 19.8608 23.8592C20.7666 24.7471 21.6416 25.6654 22.5354 26.5651C23.2054 27.2398 23.672 27.2415 24.3385 26.5685C27.0559 23.8271 29.7698 21.084 32.4889 18.3443C33.8767 16.9457 35.4421 16.9389 36.8196 18.3494C37.3341 18.877 37.8792 19.4165 38.2296 20.0473C38.8141 21.1026 38.5099 22.3118 37.5767 23.2555C33.5742 27.3007 29.5682 31.3409 25.569 35.3879C24.9691 35.995 24.2889 36.3891 23.5062 36.3671L23.5096 36.3688ZM17.9108 24.6574C17.6083 24.8046 17.3417 24.8824 17.1468 25.0447C16.8272 25.3085 16.5521 25.6265 16.2615 25.9258C15.5831 26.6226 15.5779 27.0724 16.2633 27.7658C18.362 29.8933 20.4641 32.0157 22.5679 34.1381C23.2071 34.7824 23.6788 34.7791 24.3282 34.128C25.8988 32.5484 27.466 30.9655 29.0332 29.3826C31.4413 26.9507 33.851 24.5204 36.2591 22.0869C36.9051 21.4341 36.9051 20.9369 36.2608 20.2739C36.0454 20.0524 35.8267 19.8376 35.6096 19.6194C34.8645 18.872 34.4509 18.872 33.6989 19.6313C31.0106 22.3456 28.3223 25.0633 25.6339 27.7759C24.2701 29.1509 22.6346 29.1593 21.2759 27.7962C20.4196 26.9371 19.5788 26.0611 18.7123 25.2121C18.4918 24.9974 18.1996 24.8536 17.9108 24.6574Z" fill="black"/>
<path d="M49 17.6084C48.9641 23.7405 48.0259 29.1455 45.7169 34.2765C45.6793 34.3594 45.6486 34.4439 45.6076 34.5234C45.3478 35.0189 44.8932 35.2134 44.4334 35.0257C43.9737 34.8397 43.7926 34.3306 43.9959 33.7962C44.5069 32.4517 45.0863 31.1276 45.517 29.7594C46.915 25.3133 47.4055 20.7506 47.156 16.1083C47.0842 14.7604 46.9321 13.4177 46.8073 12.0732C46.7253 11.1819 46.5578 11.0027 45.664 10.8454C41.511 10.1097 37.5306 8.84305 33.7075 7.07916C30.7457 5.7127 27.9548 4.0655 25.3195 2.15618C24.5624 1.60824 24.4633 1.63699 23.6874 2.14603C22.0364 3.23007 20.3701 4.29381 18.6987 5.34572C18.133 5.70086 17.5895 5.58924 17.3195 5.12417C17.0426 4.64896 17.2169 4.19065 17.8134 3.83212C17.9057 3.77631 18.0065 3.73065 18.0971 3.67146C19.6198 2.6872 21.1614 1.73 22.6585 0.710227C24.0035 -0.206385 24.9948 -0.258811 26.3039 0.695007C29.5425 3.05588 33.0222 4.98381 36.7479 6.4788C39.8549 7.72688 43.0713 8.59445 46.363 9.20834C47.5883 9.43665 48.3882 10.3025 48.5352 11.5303C48.6667 12.638 48.7898 13.7474 48.8735 14.8602C48.9539 15.9561 48.9795 17.0554 49.0034 17.6101L49 17.6084Z" fill="black"/>
<path d="M13.122 1.73997C13.6125 1.77041 13.8945 2.02071 14.0039 2.48239C14.25 3.53092 14.479 4.58452 14.7559 5.62458C15.1883 7.25487 16.2393 8.31861 17.8817 8.77354C18.7892 9.02383 19.7121 9.21493 20.6299 9.4314C20.8059 9.47368 20.9871 9.49735 21.1631 9.54133C21.5972 9.65125 21.8638 9.91507 21.8723 10.3751C21.8826 10.8604 21.6177 11.153 21.1562 11.2579C20.3257 11.4473 19.4882 11.6045 18.6593 11.8041C18.2201 11.909 17.7928 12.0662 17.3656 12.2151C15.6548 12.8104 14.9644 14.2022 14.5576 15.7953C14.3491 16.6121 14.1851 17.4425 14.0124 18.2677C13.9116 18.7548 13.6433 19.0508 13.1272 19.0491C12.611 19.0474 12.3478 18.748 12.247 18.2627C12.0915 17.5067 11.8898 16.7592 11.7531 15.9999C11.3036 13.4987 9.72787 12.1643 7.28394 11.7043C6.57127 11.569 5.86201 11.4118 5.15105 11.268C4.68448 11.1733 4.39907 10.9112 4.38711 10.4258C4.37685 9.91507 4.66226 9.6428 5.15447 9.53118C6.21579 9.29272 7.27881 9.06273 8.32987 8.78537C9.97739 8.35074 11.0455 7.30222 11.4916 5.67363C11.7753 4.63525 12.0094 3.58334 12.2453 2.53144C12.3547 2.04269 12.6247 1.7738 13.122 1.73828V1.73997ZM17.128 10.3954C15.0943 9.70537 13.833 8.43361 13.1255 6.45664C12.4247 8.44038 11.1532 9.7003 9.14338 10.3987C11.1583 11.0921 12.4282 12.374 13.1374 14.3459C13.8347 12.3351 15.1267 11.0921 17.128 10.3954Z" fill="black"/>
<path d="M40.1147 50.2089C39.7438 50.1768 39.4635 49.9265 39.3644 49.4597C39.1918 48.6513 38.9953 47.848 38.8329 47.0363C38.3868 44.8006 37.0521 43.4392 34.7944 42.964C33.9587 42.7881 33.1264 42.5987 32.2907 42.4295C31.7985 42.3298 31.4994 42.0676 31.5011 41.5552C31.5011 41.0428 31.8019 40.784 32.2941 40.6843C33.1657 40.5067 34.0322 40.3088 34.9021 40.1194C37.0965 39.6425 38.3732 38.2845 38.8226 36.1283C38.9696 35.4247 39.1337 34.7246 39.2755 34.0194C39.4362 33.2195 39.6908 32.9117 40.2275 32.9049C40.7727 32.8981 41.0307 33.1992 41.1999 33.9957C41.3674 34.7872 41.5554 35.5736 41.728 36.3633C42.1963 38.5128 43.596 39.7017 45.7135 40.1515C46.5304 40.3257 47.3439 40.5151 48.1626 40.6775C48.6514 40.7739 48.9692 41.0208 48.9795 41.5315C48.9915 42.0693 48.6719 42.3348 48.1574 42.438C47.3559 42.5987 46.5629 42.7965 45.7614 42.9538C43.502 43.3986 42.1314 44.7245 41.6597 46.9602C41.4853 47.7872 41.3025 48.6125 41.1162 49.4361C40.9966 49.962 40.6941 50.2174 40.1147 50.2089ZM36.3069 41.5772C38.2758 42.257 39.5387 43.5271 40.2429 45.5024C40.9453 43.495 42.2424 42.2401 44.2386 41.5484C42.2048 40.8737 40.947 39.5816 40.248 37.6655C39.2243 39.908 38.6825 40.4458 36.3069 41.5772Z" fill="black"/>
<path d="M24.4496 46.0116C23.5865 45.6953 22.7064 45.4231 21.8655 45.0578C14.2432 41.7465 9.26644 36.0997 6.79858 28.2628C5.52364 24.2158 5.13056 20.0556 5.28608 15.8361C5.30146 15.4353 5.42451 15.0159 5.59542 14.6489C5.7817 14.2515 6.16624 14.0993 6.60888 14.2549C7.03443 14.4054 7.30275 14.7318 7.20705 15.1698C6.8208 16.9269 7.01051 18.6925 7.13356 20.4462C7.35915 23.6341 7.9915 26.7492 9.18954 29.7324C11.965 36.6527 16.9042 41.3879 23.9471 43.9737C24.2667 44.0904 24.7059 44.087 25.0255 43.9687C26.027 43.5983 26.9875 43.1163 27.9873 42.7426C28.2693 42.6377 28.7034 42.6462 28.9427 42.7984C29.1546 42.9337 29.2828 43.3379 29.2794 43.622C29.2759 43.8351 29.0486 44.1429 28.8418 44.2359C27.5874 44.799 26.3107 45.3165 25.0358 45.8357C24.8751 45.9017 24.6786 45.8814 24.4974 45.9017C24.4821 45.9389 24.465 45.9761 24.4496 46.0133V46.0116Z" fill="black"/>
<path d="M1.27152 11.2852C1.83551 11.2903 2.16535 11.7807 2.12775 12.4233C1.99445 14.6692 1.7586 16.9201 1.80133 19.1643C1.91241 24.8636 3.09678 30.3345 5.80391 35.4198C6.15084 36.0726 6.54221 36.7017 6.91479 37.3393C7.25147 37.9143 7.17456 38.4352 6.71141 38.7108C6.23801 38.9933 5.75947 38.8309 5.39374 38.2491C3.19078 34.745 1.74322 30.9467 0.893825 26.9183C0.00853988 22.7276 -0.167492 18.4929 0.140136 14.2329C0.189698 13.5513 0.273442 12.8715 0.358894 12.1933C0.427256 11.6471 0.808372 11.2818 1.26981 11.2852H1.27152Z" fill="black"/>
<path d="M24.3607 52.0001C23.7267 51.8141 23.0089 51.628 22.3082 51.393C18.2628 50.0417 14.6209 47.9887 11.3942 45.2202C11.0285 44.9073 10.8422 44.5454 11.078 44.0787C11.2865 43.666 11.6574 43.5257 12.0847 43.6356C12.3 43.6914 12.5 43.8521 12.676 44.0026C15.9967 46.815 19.7548 48.8342 23.9454 50.0569C24.2855 50.1567 24.7059 50.1567 25.046 50.0569C28.1138 49.1505 30.9833 47.8195 33.6272 46.0252C33.7468 45.944 33.8664 45.8595 33.9912 45.7884C34.4697 45.5179 34.9756 45.6159 35.2422 46.0269C35.5191 46.4531 35.437 46.9435 34.9585 47.2479C33.8733 47.9379 32.7829 48.6245 31.6583 49.2486C29.6707 50.3495 27.5549 51.1613 25.3759 51.809C25.0836 51.8953 24.7743 51.9257 24.3641 52.0035L24.3607 52.0001Z" fill="black"/>
<path d="M43.7242 17.8619C43.7532 21.8717 43.0816 25.7698 41.7759 29.5648C41.564 30.1787 41.1982 30.4493 40.7197 30.3546C40.1249 30.2362 39.8942 29.7322 40.0805 29.049C40.5283 27.4035 41.029 25.7665 41.3777 24.1007C41.9126 21.5538 42.0698 18.9663 41.9673 16.3653C41.9468 15.8613 41.9075 15.381 41.4939 14.9785C41.1709 14.6623 41.2597 14.1008 41.5828 13.8099C41.9263 13.5004 42.3911 13.4937 42.7705 13.8133C43.4046 14.3494 43.6934 15.0529 43.7191 15.8613C43.7396 16.5276 43.7225 17.1939 43.7225 17.8619H43.7242Z" fill="black"/>
<path d="M24.5162 5.96289C24.9982 6.14554 25.528 6.25715 25.957 6.52267C28.3325 7.99736 30.7918 9.31309 33.3657 10.4157C33.9707 10.6745 34.2014 11.1768 33.9758 11.6655C33.7519 12.1492 33.2426 12.2828 32.612 12.0105C30.0587 10.9079 27.6011 9.62596 25.2528 8.14281C24.8922 7.9145 24.5555 7.75553 24.0873 7.89082C23.5523 8.04472 23.096 7.74031 22.9849 7.27016C22.8738 6.79664 23.1336 6.37046 23.672 6.20304C23.9283 6.12186 24.2018 6.09311 24.4667 6.03899C24.4838 6.01363 24.5009 5.98995 24.5179 5.96458L24.5162 5.96289Z" fill="black"/>
<path d="M39.1679 13.0204C39.1542 13.7459 38.6654 14.1772 38.1424 14.0469C37.6195 13.9167 37.0999 13.7442 36.606 13.5278C36.1839 13.34 35.9925 12.9663 36.1429 12.5046C36.2898 12.0531 36.6385 11.8078 37.1051 11.9144C37.6639 12.0429 38.2245 12.2171 38.7389 12.464C38.9679 12.5739 39.0858 12.9088 39.1679 13.0221V13.0204Z" fill="black"/>
<path d="M8.49394 40.0942C8.58452 40.1179 8.77423 40.1095 8.85455 40.1991C9.29549 40.6878 9.77231 41.1647 10.097 41.7245C10.2013 41.9055 9.9586 42.4061 9.73471 42.6191C9.44417 42.8982 9.00153 42.8559 8.69903 42.56C8.34013 42.2099 7.99319 41.8311 7.71462 41.4167C7.34034 40.8603 7.77444 40.1128 8.49394 40.0942Z" fill="black"/>
</g>
<defs>
<clipPath id="clip0_184_159">
<rect width="49" height="52" fill="white"/>
</clipPath>
</defs>
</svg>
