<svg width="46" height="52" viewBox="0 0 46 52" fill="none" xmlns="http://www.w3.org/2000/svg">
<g clip-path="url(#clip0_184_179)">
<path d="M11.5156 38.293C13.2149 37.3076 14.8898 36.3329 16.5693 35.3644C17.502 34.8258 18.4561 34.2871 19.5488 34.2321C20.2743 34.1953 21.0424 34.2428 21.7358 34.4463C23.7399 35.0339 25.7151 35.7224 27.7055 36.3589C28.0331 36.4645 28.3806 36.5028 28.7159 36.5869C30.3497 36.994 31.2534 38.446 30.9136 40.1093C30.8968 40.1904 30.9014 40.2761 30.8892 40.4643C31.1605 40.3174 31.3677 40.2133 31.5674 40.0971C33.8123 38.7873 36.0557 37.4775 38.2975 36.1646C39.3049 35.5755 40.3489 35.092 41.5148 34.9053C43.054 34.6574 44.4287 35.3781 44.9377 36.7277C45.4864 38.1813 44.9743 39.6992 43.6408 40.5255C39.4573 43.1175 35.2708 45.7019 31.0888 48.2955C29.5922 49.2243 28.0133 49.4492 26.3125 48.9795C23.6317 48.2389 20.9342 47.5534 18.2595 46.7929C17.5874 46.6016 17.0524 46.6583 16.5221 47.1724C16.6669 47.4386 16.8254 47.7217 16.9747 48.0094C17.4761 48.9841 17.2109 50.0246 16.2843 50.5968C15.6077 51.0146 14.9112 51.4063 14.204 51.772C13.285 52.2463 12.235 51.9632 11.7214 51.062C9.73707 47.5779 7.76954 44.0846 5.81573 40.5836C5.29755 39.6564 5.60846 38.5975 6.51221 38.0436C7.14773 37.655 7.80002 37.2954 8.45231 36.9373C9.51913 36.3513 10.5357 36.639 11.162 37.6932C11.2748 37.8845 11.3891 38.0758 11.5171 38.2915L11.5156 38.293ZM15.6473 45.6484C15.9658 45.4663 16.2493 45.3316 16.5007 45.1541C16.9458 44.8389 17.3862 44.8037 17.9181 44.9522C20.762 45.7432 23.6241 46.4747 26.4649 47.2734C27.9066 47.6789 29.1899 47.4937 30.4701 46.6889C34.5164 44.1427 38.5886 41.6364 42.6715 39.1484C43.464 38.6664 43.5341 37.9304 43.3665 37.378C43.1927 36.8057 42.6258 36.5303 41.8348 36.5976C40.8015 36.6849 39.9267 37.1852 39.0595 37.6902C36.7842 39.0137 34.5133 40.3449 32.2425 41.6746C31.322 42.2148 30.3283 42.4917 29.2676 42.4152C27.0242 42.2561 24.9287 41.4283 22.7676 40.9004C22.318 40.7902 22.1031 40.322 22.2144 39.9165C22.3439 39.4468 22.7783 39.1744 23.2522 39.2876C23.6378 39.381 24.0158 39.5049 24.3998 39.6089C25.4834 39.9012 26.564 40.2057 27.6552 40.4719C28.4934 40.677 29.0954 40.3572 29.2691 39.6732C29.4307 39.0351 29.0283 38.4537 28.3151 38.2379C26.1189 37.5708 23.906 36.9526 21.7404 36.1952C20.4251 35.7362 19.2349 35.8127 18.0568 36.4859C16.1929 37.5509 14.3381 38.6327 12.4803 39.7099C12.4407 39.7329 12.4179 39.788 12.3752 39.8446C13.4557 41.7603 14.5363 43.6791 15.6473 45.6484ZM15.5406 48.9473C15.4659 48.802 15.4126 48.6933 15.3547 48.5878C14.9904 47.9375 14.6247 47.2871 14.2589 46.6384C12.7775 44.0111 11.2855 41.387 9.82089 38.7505C9.60296 38.3573 9.40788 38.316 9.0543 38.5394C8.61538 38.8163 8.16884 39.0841 7.70096 39.309C7.29557 39.5034 7.23003 39.6946 7.46626 40.1032C8.4325 41.768 9.36521 43.4526 10.3101 45.1297C11.2123 46.7317 12.1146 48.3338 13.0168 49.9343C13.1342 50.1439 13.2286 50.3964 13.5578 50.2036C14.14 49.8624 14.7298 49.5349 15.312 49.1922C15.405 49.1371 15.4659 49.0315 15.5406 48.9489V48.9473Z" fill="black"/>
<path d="M45.9817 12.8759C45.9817 14.5636 46.0305 16.2529 45.9726 17.9391C45.7485 24.6319 42.6334 29.5482 36.8146 32.7584C35.2403 33.626 33.5334 34.183 31.7579 34.3758C30.9669 34.4614 30.1043 34.2319 29.324 33.9871C22.6426 31.9015 18.5933 27.3968 17.211 20.5112C17.0281 19.5977 16.9884 18.6445 16.9823 17.7096C16.9564 14.1428 16.9823 10.5746 16.9625 7.00782C16.9595 6.37587 17.2049 6.03007 17.7794 5.78524C22.1686 3.91389 26.5503 2.02265 30.9303 0.125286C31.3296 -0.0476187 31.6786 -0.0369078 32.0718 0.132937C36.4656 2.03336 40.8625 3.92766 45.2639 5.80973C45.779 6.03007 46 6.35445 45.9924 6.92519C45.9695 8.90824 45.9832 10.8928 45.9832 12.8759H45.9817ZM18.6786 13.338C18.6786 14.7136 18.6588 16.0876 18.6862 17.4632C18.7045 18.3492 18.6984 19.2504 18.8645 20.1134C20.0533 26.2951 23.6393 30.376 29.6181 32.304C30.5554 32.6069 31.5003 32.7814 32.5184 32.5427C39.4146 30.9253 44.2458 24.9088 44.3099 17.7677C44.3388 14.4091 44.3099 11.0489 44.3236 7.69026C44.3236 7.35669 44.2093 7.20215 43.9151 7.07667C39.8917 5.35528 35.8758 3.61858 31.8509 1.9033C31.6466 1.81608 31.3403 1.82067 31.1346 1.90789C27.1263 3.61552 23.1288 5.34763 19.1206 7.05678C18.77 7.20674 18.671 7.39341 18.674 7.75299C18.6893 9.61516 18.6817 11.4773 18.6817 13.3395L18.6786 13.338Z" fill="black"/>
<path d="M3.7537 18.6954C3.97469 18.752 4.13928 18.7489 4.23682 18.827C4.96531 19.4176 5.60083 18.8989 6.23941 18.6464C6.39791 18.5837 6.49087 18.3021 6.57012 18.1032C6.89322 17.2968 7.01209 17.2065 7.8686 17.2065C8.37153 17.2065 8.87447 17.231 9.37587 17.2004C9.94891 17.1668 10.3528 17.4009 10.4564 17.9502C10.6302 18.8622 11.4653 18.8331 12.0521 19.1345C12.1938 19.2064 12.4941 18.9922 12.7089 18.8866C13.2073 18.6433 13.6325 18.7 14.0196 19.1192C14.4082 19.54 14.8197 19.9394 15.2297 20.3387C15.5985 20.6983 15.7372 21.1206 15.4354 21.5537C14.9097 22.3095 15.4553 22.9078 15.7052 23.5245C15.7814 23.7127 16.1609 23.7968 16.4154 23.8886C16.8848 24.0569 17.1104 24.3722 17.1043 24.8694C17.0982 25.4601 17.0875 26.0522 17.1088 26.6429C17.1286 27.2167 16.8513 27.5411 16.3377 27.7339C15.4522 28.0674 15.0316 29.0651 15.3989 29.9128C15.7037 30.6197 15.6732 30.7803 15.123 31.3373C14.7451 31.7198 14.3549 32.0917 13.9861 32.4834C13.6325 32.8598 13.2104 33.0098 12.7821 32.7098C12.0307 32.1804 11.4379 32.7236 10.8161 32.9638C10.653 33.0266 10.5814 33.3632 10.4915 33.5835C10.2248 34.24 10.0388 34.3777 9.32253 34.3838C8.76778 34.3884 8.21456 34.3807 7.65981 34.3838C7.14621 34.3884 6.7652 34.1757 6.66461 33.6585C6.49087 32.7665 5.69228 32.7206 5.07504 32.4711C4.88606 32.3946 4.56144 32.6119 4.31607 32.7297C3.86343 32.947 3.48547 32.869 3.14104 32.514C2.73107 32.0901 2.31958 31.6663 1.89133 31.2608C1.49508 30.8859 1.37925 30.4468 1.68101 30C2.19766 29.238 1.61548 28.655 1.38992 28.0338C1.32286 27.8501 0.926614 27.7706 0.669051 27.6803C0.193552 27.5135 -0.0137171 27.1968 0.00304731 26.6934C0.0213358 26.1027 0.0274319 25.5106 0.00304731 24.9199C-0.0213373 24.363 0.21184 23.9866 0.740681 23.8886C1.64901 23.7203 1.60938 22.8696 1.92333 22.2866C1.98734 22.1672 1.80751 21.9086 1.72521 21.7204C1.39602 20.9615 1.42497 20.7993 2.01478 20.2041C2.39426 19.8215 2.76155 19.4283 3.15933 19.0657C3.34221 18.9004 3.58301 18.8009 3.75218 18.6984L3.7537 18.6954ZM13.7621 21.1497C13.4649 20.9921 13.0549 20.6279 12.8934 20.7167C12.1679 21.1176 11.572 20.9248 10.9502 20.5392C10.7765 20.4321 10.5738 20.354 10.3726 20.3127C9.72335 20.1811 9.28443 19.8521 9.10002 19.1789C9.06345 19.0458 8.77236 18.9111 8.59861 18.9096C8.40049 18.9096 8.06063 19.0182 8.02558 19.1468C7.83202 19.869 7.34281 20.1857 6.66766 20.3326C6.45125 20.38 6.23026 20.4642 6.04585 20.5866C5.46672 20.9676 4.89978 21.1038 4.25359 20.7182C4.1469 20.6539 3.84514 20.7993 3.71408 20.9309C3.58301 21.0625 3.43365 21.3654 3.49614 21.4741C3.8741 22.1198 3.76132 22.689 3.37117 23.272C3.2401 23.4694 3.14866 23.7111 3.10294 23.9452C2.97187 24.6231 2.62287 25.0653 1.93857 25.2566C1.81665 25.2902 1.69168 25.5626 1.6932 25.7248C1.6932 25.9268 1.78312 26.2726 1.90505 26.3078C2.63201 26.5143 2.98406 26.9948 3.12427 27.7033C3.1639 27.9037 3.24315 28.1103 3.35593 28.2801C3.74761 28.8753 3.90306 29.4629 3.48852 30.1255C3.42908 30.2203 3.5632 30.5049 3.68207 30.6289C3.81314 30.765 4.10575 30.941 4.20024 30.8844C4.89521 30.4651 5.50939 30.6289 6.1312 31.0328C6.31561 31.1537 6.53659 31.2486 6.75301 31.2838C7.40225 31.3924 7.83202 31.729 7.97681 32.3839C8.05301 32.7313 8.30905 32.6762 8.54527 32.6731C8.77388 32.6685 9.04516 32.7527 9.12288 32.4053C9.26919 31.755 9.67459 31.4016 10.3314 31.2945C10.5631 31.2562 10.8039 31.1522 10.9974 31.016C11.6665 30.5432 12.3295 30.5172 13.0183 30.9548C13.0381 30.9686 13.0808 30.9456 13.1052 30.9425C13.4725 30.6227 13.9023 30.3473 13.4832 29.7628C13.218 29.3925 13.3612 29.0146 13.5548 28.6382C13.759 28.2403 13.948 27.8241 14.0684 27.3942C14.2086 26.8953 14.4707 26.5526 14.9721 26.4271C15.3059 26.343 15.4263 26.1762 15.4248 25.8105C15.4233 25.4295 15.3059 25.2336 14.9462 25.1464C14.4829 25.0347 14.2345 24.7271 14.0943 24.2635C13.9495 23.7861 13.7438 23.3225 13.5167 22.8772C13.3368 22.5238 13.285 22.1978 13.4664 21.8383C13.5594 21.6531 13.631 21.4588 13.7621 21.1543V21.1497Z" fill="black"/>
<path d="M9.97939 40.2808C9.97177 39.8401 9.5801 39.4576 9.1366 39.4561C8.65653 39.4561 8.29228 39.8416 8.31057 40.3328C8.32886 40.8026 8.68701 41.1331 9.16251 41.1208C9.61972 41.1086 9.98701 40.7307 9.97939 40.2808Z" fill="white"/>
<path d="M9.9794 40.2808C9.98702 40.7307 9.61972 41.1086 9.16251 41.1208C8.68701 41.1346 8.32886 40.8026 8.31058 40.3328C8.29229 39.8416 8.65501 39.4561 9.1366 39.4561C9.5801 39.4561 9.9733 39.8386 9.9794 40.2808Z" fill="black"/>
<path d="M42.3469 14.0051C42.3469 15.3807 42.3713 16.7548 42.3423 18.1304C42.2265 23.7184 38.4347 28.676 33.1356 30.3806C31.5384 30.8947 30.1348 30.5627 28.7327 29.9338C24.0935 27.8559 21.3274 24.2968 20.7376 19.2168C20.4968 17.1373 20.6339 15.0135 20.6111 12.908C20.5974 11.69 20.6187 10.4721 20.6035 9.25255C20.5974 8.74914 20.8183 8.44005 21.2664 8.24725C24.5096 6.85636 27.7466 5.45017 30.9989 4.07917C31.2809 3.95982 31.7 3.96135 31.9834 4.07917C35.2342 5.44711 38.4697 6.85024 41.7129 8.23807C42.167 8.4324 42.3667 8.74761 42.3621 9.24949C42.3469 10.8332 42.356 12.4169 42.356 14.0005C42.353 14.0005 42.3499 14.0005 42.3469 14.0005V14.0051ZM22.2982 14.5024C22.2738 14.5024 22.2509 14.504 22.2265 14.5055C22.3028 16.1886 22.2494 17.8901 22.4795 19.5519C23.1242 24.1897 26.7148 27.9783 31.2458 28.9606C31.3921 28.9928 31.5567 28.9989 31.703 28.9683C36.7521 27.9247 40.6445 23.1599 40.6735 17.9728C40.6887 15.3624 40.6689 12.752 40.6857 10.1416C40.6887 9.7682 40.5683 9.60142 40.2285 9.45759C37.441 8.27786 34.6673 7.06905 31.8798 5.89085C31.6603 5.79751 31.3372 5.79292 31.1193 5.88473C28.3166 7.06752 25.5276 8.28398 22.7249 9.46677C22.3683 9.61825 22.286 9.81717 22.2906 10.1706C22.3073 11.6151 22.2967 13.0595 22.2967 14.504L22.2982 14.5024Z" fill="black"/>
<path d="M8.52698 30.2814C6.0108 30.2646 4.04631 28.2448 4.06917 25.6987C4.09051 23.2597 6.13577 21.269 8.60014 21.2843C11.0477 21.2996 13.0305 23.3239 13.0229 25.7997C13.0168 28.3106 11.0234 30.2983 8.52698 30.2814ZM11.3465 25.7721C11.3388 24.2481 10.0861 22.9965 8.55899 22.9873C7.01971 22.9781 5.73647 24.2696 5.75476 25.8089C5.77305 27.3604 7.04867 28.609 8.59709 28.5922C10.1074 28.5753 11.3541 27.2962 11.3465 25.7721Z" fill="black"/>
<path d="M29.8254 17.1434C30.7642 16.2284 31.6634 15.3623 32.5489 14.4856C33.2636 13.7771 33.9586 13.0488 34.6734 12.3388C35.6716 11.3473 37.0707 11.3243 38.0125 12.2745C38.9376 13.2064 38.9346 14.6095 37.9775 15.5903C35.8652 17.7493 33.7467 19.9022 31.6177 22.0444C30.5691 23.1002 29.2219 23.0849 28.1673 22.0337C27.1218 20.9932 26.0793 19.9481 25.0445 18.8969C24.0539 17.8916 24.0188 16.4946 24.95 15.5429C25.8873 14.5835 27.3153 14.611 28.3303 15.6178C28.8454 16.1289 29.3469 16.6553 29.8269 17.1434H29.8254ZM29.8986 21.1783C30.1348 21.01 30.3634 20.8922 30.5356 20.7178C32.5778 18.6582 34.6109 16.591 36.6455 14.5238C36.7308 14.4381 36.8725 14.3463 36.8771 14.253C36.8893 13.9959 36.9305 13.647 36.7902 13.5047C36.6485 13.3609 36.2949 13.3762 36.048 13.4114C35.9078 13.4313 35.7859 13.6241 35.6655 13.7465C33.9952 15.4404 32.3279 17.1388 30.656 18.8296C30.118 19.3743 29.6837 19.3713 29.1426 18.8327C28.4782 18.1716 27.8228 17.4999 27.1553 16.8404C26.8017 16.49 26.41 16.4533 26.1586 16.7501C25.869 17.0944 25.9604 17.4173 26.2592 17.7157C27.2894 18.747 28.3151 19.7859 29.3514 20.8126C29.4901 20.9504 29.6806 21.0345 29.9001 21.1768L29.8986 21.1783Z" fill="black"/>
</g>
<defs>
<clipPath id="clip0_184_179">
<rect width="46" height="52" fill="white"/>
</clipPath>
</defs>
</svg>
