<svg width="21" height="16" viewBox="0 0 21 16" fill="none" xmlns="http://www.w3.org/2000/svg">
<g clip-path="url(#clip0_118_326)">
<path d="M0 7.67841C0.0182299 7.6543 0.0439175 7.63277 0.0546897 7.60522C0.317366 6.9637 0.676992 6.71226 1.34073 6.71226C9.9096 6.71226 7.70627 6.71226 16.2743 6.71226H16.7201C16.6049 6.5874 16.5337 6.5056 16.4591 6.42896C15.1184 5.0426 13.7735 3.65968 12.4378 2.26901C11.7061 1.50695 11.9795 0.316052 12.9457 0.0482511C13.4379 -0.0886629 13.8547 0.0766672 14.2127 0.447799C15.4117 1.69294 16.6165 2.93206 17.8181 4.17462C18.7337 5.12182 19.6502 6.06816 20.5625 7.01881C21.1442 7.62416 21.1475 8.37762 20.5633 8.98211C18.4486 11.1745 16.329 13.3616 14.2127 15.5531C13.8373 15.9415 13.4031 16.1034 12.8885 15.9337C12.388 15.7684 12.1022 15.3964 12.0276 14.8617C11.9629 14.4001 12.1452 14.0307 12.4568 13.7095C13.7859 12.3412 15.1101 10.9678 16.4384 9.59951C16.5171 9.51857 16.6207 9.46174 16.7118 9.39371C16.6944 9.35927 16.677 9.32482 16.6596 9.29038C16.542 9.29038 16.4243 9.29038 16.3066 9.29038C7.7999 9.29038 10.0654 9.28435 1.55866 9.30071C0.807087 9.30157 0.283392 9.05702 0 8.32337C0 8.1081 0 7.89368 0 7.67841Z" fill="#DEDEDE"/>
</g>
<defs>
<clipPath id="clip0_118_326">
<rect width="21" height="16" fill="white"/>
</clipPath>
</defs>
</svg>
