<svg width="13" height="13" viewBox="0 0 13 13" fill="none" xmlns="http://www.w3.org/2000/svg">
<g clip-path="url(#clip0_47_1196)">
<path d="M6.06386 0C6.35178 0 6.6397 0 6.92762 0C7.08647 0.0195867 7.24584 0.0356123 7.40393 0.0590146C8.5742 0.232243 9.63016 0.673835 10.5522 1.41788C11.8195 2.44071 12.6054 3.75353 12.8981 5.35685C12.9411 5.59214 12.9666 5.83074 12.9999 6.06782V6.93091C12.9918 6.97135 12.9814 7.01154 12.9755 7.05224C12.9383 7.31527 12.9197 7.58236 12.863 7.84106C12.5231 9.39375 11.7332 10.6732 10.472 11.6427C9.02759 12.753 7.3856 13.1727 5.58297 12.9359C4.51275 12.7952 3.52781 12.4088 2.66862 11.7528C0.633062 10.1983 -0.238849 8.1318 0.0562002 5.59392C0.193669 4.41109 0.671502 3.35213 1.42478 2.42698C2.44638 1.17215 3.75539 0.392498 5.3508 0.102004C5.58679 0.0590146 5.82609 0.0335773 6.06386 0ZM6.49739 11.9828C9.51739 11.9802 11.9768 9.52424 11.9837 6.50382C11.9906 3.48898 9.51408 1.01317 6.49408 1.01546C3.47409 1.018 1.01467 3.47398 1.00779 6.4944C1.00092 9.50924 3.4774 11.9851 6.49739 11.9828Z" fill="#005DA9"/>
<path d="M5.62043 7.49648C5.65684 7.44637 5.68 7.4044 5.71233 7.37209C6.67513 6.40853 7.63945 5.44674 8.60148 4.48242C8.76033 4.32343 8.93878 4.24356 9.16153 4.31249C9.49706 4.41602 9.62791 4.80547 9.42476 5.09088C9.39065 5.1387 9.34865 5.18169 9.3069 5.2234C8.21503 6.31517 7.12292 7.40644 6.03055 8.4977C5.73855 8.78946 5.46794 8.78895 5.17493 8.49643C4.66324 7.98539 4.15002 7.47537 3.64062 6.96205C3.39292 6.71251 3.41991 6.34723 3.69255 6.16102C3.90079 6.01883 4.15308 6.04299 4.35266 6.23225C4.50591 6.37775 4.65255 6.53037 4.80224 6.67995C5.06546 6.94297 5.32869 7.20573 5.62043 7.49699V7.49648Z" fill="#005DA9"/>
</g>
<defs>
<clipPath id="clip0_47_1196">
<rect width="13" height="13" fill="white"/>
</clipPath>
</defs>
</svg>
