<svg width="233" height="60" viewBox="0 0 233 60" fill="none" xmlns="http://www.w3.org/2000/svg">
<g clip-path="url(#clip0_165_507)">
<path d="M98.9295 51.4286L85.4073 15.9184H73.8169L60.4181 51.4286H70.8577L72.625 46.3265H86.7226L88.4899 51.4286H98.9295ZM84.2154 38.3265H75.091L79.6532 24.9796L84.2154 38.3265Z" fill="#27251F"/>
<path d="M127.289 51.4286V25.7143H119.028V42.3265C118.082 43.551 116.438 44.8163 114.096 44.8163C111.424 44.8163 109.821 43.7551 109.821 40.6531V25.7143H101.56V44.0408C101.56 48.7755 104.19 52.0816 110.068 52.0816C114.424 52.0816 117.425 50.1633 119.028 48.3673V51.4694H127.289V51.4286Z" fill="#27251F"/>
<path d="M158.567 51.4286V15.9184H150.346V28.7347C148.25 26.1633 145.538 25.0612 142.702 25.0612C136.208 25.0612 131.235 30.1224 131.235 38.5306C131.235 46.9388 136.331 52.0408 142.702 52.0408C145.579 52.0408 148.209 50.8571 150.346 48.4082V51.3878H158.567V51.4286ZM145.414 44.8163C142.126 44.8163 139.742 42.3673 139.742 38.5306C139.742 34.6939 142.167 32.2857 145.414 32.2857C147.182 32.2857 149.319 33.1837 150.388 34.5714V42.449C149.319 43.8775 147.182 44.8163 145.414 44.8163Z" fill="#27251F"/>
<path d="M205.832 51.4286L195.804 37.4286L205.339 25.7143H195.393L187.501 36V15.9184H179.24V51.4286H187.501V45.2653L189.968 42.3265L195.639 51.4286H205.832Z" fill="#27251F"/>
<path d="M233 51.4286V25.7143H224.739V28.7347C222.684 26.1633 219.971 25.0612 217.135 25.0612C210.641 25.0612 205.668 30.1224 205.668 38.5306C205.668 46.9388 210.765 52.0408 217.135 52.0408C220.012 52.0408 222.643 50.8571 224.78 48.4082V51.3878H233V51.4286ZM219.807 44.8163C216.519 44.8163 214.135 42.3673 214.135 38.5306C214.135 34.6939 216.56 32.3673 219.807 32.3673C221.574 32.3673 223.711 33.2653 224.78 34.6531V42.4898C223.752 43.8775 221.615 44.8163 219.807 44.8163Z" fill="#27251F"/>
<path d="M169.006 22.4082C171.719 22.4082 173.897 20.2041 173.897 17.5102C173.897 14.8163 171.719 12.6531 169.006 12.6531C166.294 12.6531 164.115 14.8163 164.115 17.5102C164.115 20.2041 166.294 22.4082 169.006 22.4082ZM173.281 24.7755H164.732V51.4286H173.281V24.7755Z" fill="#27251F"/>
<path d="M51.7869 25.9592C51.7869 51.4286 27.3731 60 25.8935 60V51.4286C11.5904 51.4286 0 39.9184 0 25.7143C0 11.5102 11.5904 0 25.8935 0C40.1965 0 51.7869 11.5102 51.7869 25.9592Z" fill="#075EA9"/>
</g>
<defs>
<clipPath id="clip0_165_507">
<rect width="233" height="60" fill="white"/>
</clipPath>
</defs>
</svg>
