<svg width="339" height="88" viewBox="0 0 339 88" fill="none" xmlns="http://www.w3.org/2000/svg">
<g clip-path="url(#clip0_165_515)">
<path d="M143.936 75.4288L124.262 23.3472H107.399L87.9044 75.4288H103.093L105.665 67.9458H126.176L128.747 75.4288H143.936ZM122.528 56.2125H109.253L115.89 36.637L122.528 56.2125Z" fill="white"/>
<path d="M185.197 75.4286V37.7144H173.178V62.079C171.802 63.8749 169.41 65.7307 166.002 65.7307C162.115 65.7307 159.783 64.1742 159.783 59.6246V37.7144H147.763V64.5933C147.763 71.5375 151.59 76.3865 160.141 76.3865C166.48 76.3865 170.845 73.5729 173.178 70.9388V75.4885H185.197V75.4286Z" fill="white"/>
<path d="M230.704 75.4288V23.3472H218.744V42.1444C215.695 38.373 211.748 36.7567 207.622 36.7567C198.174 36.7567 190.938 44.1798 190.938 56.5118C190.938 68.8438 198.353 76.3268 207.622 76.3268C211.808 76.3268 215.635 74.5907 218.744 70.9989V75.3689H230.704V75.4288ZM211.568 65.7308C206.785 65.7308 203.316 62.139 203.316 56.5118C203.316 50.8846 206.844 47.3526 211.568 47.3526C214.14 47.3526 217.249 48.6696 218.804 50.705V62.2587C217.249 64.354 214.14 65.7308 211.568 65.7308Z" fill="white"/>
<path d="M299.473 75.4288L284.882 54.8955L298.755 37.7145H284.284L272.803 52.8002V23.3472H260.783V75.4288H272.803V66.3893L276.391 62.0791L284.643 75.4288H299.473Z" fill="white"/>
<path d="M339 75.4285V37.7142H326.98V42.1441C323.99 38.3727 320.044 36.7563 315.918 36.7563C306.469 36.7563 299.234 44.1795 299.234 56.5115C299.234 68.8434 306.649 76.3264 315.918 76.3264C320.104 76.3264 323.931 74.5904 327.04 70.9985V75.3686H339V75.4285ZM319.805 65.7305C315.021 65.7305 311.552 62.1387 311.552 56.5115C311.552 50.8842 315.08 47.472 319.805 47.472C322.376 47.472 325.485 48.789 327.04 50.8244V62.3183C325.545 64.3536 322.436 65.7305 319.805 65.7305Z" fill="white"/>
<path d="M245.893 32.8651C249.84 32.8651 253.009 29.6324 253.009 25.6814C253.009 21.7304 249.84 18.5576 245.893 18.5576C241.946 18.5576 238.777 21.7304 238.777 25.6814C238.777 29.6324 241.946 32.8651 245.893 32.8651ZM252.112 36.3372H239.674V75.4284H252.112V36.3372Z" fill="white"/>
<path d="M75.3466 38.0735C75.3466 75.4286 39.8261 88 37.6733 88V75.4286C16.8633 75.4286 0 58.5469 0 37.7143C0 16.8816 16.8633 0 37.6733 0C58.4833 0 75.3466 16.8816 75.3466 38.0735Z" fill="white"/>
</g>
<defs>
<clipPath id="clip0_165_515">
<rect width="339" height="88" fill="white"/>
</clipPath>
</defs>
</svg>
